<?xml version="1.0" encoding="UTF-8" standalone="no"?>
<!-- Created with Inkscape (http://www.inkscape.org/) -->

<svg
   width="244.13515mm"
   height="129.69185mm"
   viewBox="0 0 244.13513 129.69185"
   version="1.1"
   id="svg1"
   xml:space="preserve"
   sodipodi:docname="cred-edge-icon-logo-2 (Copy).svg"
   inkscape:version="1.2.2 (b0a8486541, 2022-12-01)"
   xmlns:inkscape="http://www.inkscape.org/namespaces/inkscape"
   xmlns:sodipodi="http://sodipodi.sourceforge.net/DTD/sodipodi-0.dtd"
   xmlns="http://www.w3.org/2000/svg"
   xmlns:svg="http://www.w3.org/2000/svg"><sodipodi:namedview
     id="namedview17"
     pagecolor="#ffffff"
     bordercolor="#000000"
     borderopacity="0.25"
     inkscape:showpageshadow="true"
     inkscape:pageopacity="0.0"
     inkscape:pagecheckerboard="false"
     inkscape:deskcolor="#424242"
     inkscape:document-units="px"
     showgrid="false"
     showborder="true"
     inkscape:zoom="0.37348397"
     inkscape:cx="348.07384"
     inkscape:cy="381.54248"
     inkscape:window-width="1854"
     inkscape:window-height="1011"
     inkscape:window-x="66"
     inkscape:window-y="32"
     inkscape:window-maximized="1"
     inkscape:current-layer="svg1" /><defs
     id="defs1" /><g
     id="g18717"
     transform="translate(48.244852,-194.2895)"><path
       id="path15698-1-9-6"
       style="color:#000000;-inkscape-font-specification:'Libre Baskerville, Bold';fill:#8ab9b5;fill-opacity:1;stroke-width:1.37026;-inkscape-stroke:none"
       d="m 66.820468,214.73635 c -2.8386,0 -5.46432,0.47169 -7.85896,1.41658 -2.39043,0.91275 -4.46537,2.23987 -6.20398,3.97903 -1.706555,1.70651 -3.035902,3.75001 -3.979067,6.10505 -0.947913,2.33884 -1.415473,4.93626 -1.415473,7.77583 0,3.64976 0.76445,6.86049 2.319334,9.58901 v 0 10e-4 c 1.582317,2.6897 3.814736,4.79284 6.652806,6.27496 2.84519,1.48597 6.1677,2.21879 9.93191,2.21879 4.49926,0 8.3595,-1.32737 11.65642,-3.69243 l 0.57373,3.23746 h 3.40139 V 237.9225 h -3.21924 l -0.13625,0.50921 c -0.82485,3.11974 -2.18506,5.42336 -4.05966,6.98619 -1.87446,1.53069 -4.20118,2.29899 -7.08105,2.29899 -3.58036,0 -6.15728,-1.17366 -7.97384,-3.55722 -1.82157,-2.39077 -2.77832,-5.84492 -2.77832,-10.42853 0,-4.67408 0.95464,-8.27269 2.78861,-10.85316 v 0 c 1.85902,-2.57172 4.3696,-3.81376 7.77797,-3.81376 2.47194,0 4.50005,0.74029 6.2012,2.24271 v 0.001 c 1.734,1.50704 2.90428,3.56237 3.51653,6.24462 l 0.1187,0.53259 h 3.00373 l 1.01795,-12.89974 h -3.47907 l -0.78252,2.55604 c -1.59155,-0.92715 -3.1492,-1.74198 -4.60846,-2.20183 -1.68335,-0.53955 -3.48527,-0.80917 -5.40154,-0.80917 z m 17.99531,0.456 v 0.684 2.47841 l 0.65366,0.0282 c 1.20141,0.0591 2.06742,0.23391 2.53234,0.4416 0.42285,0.1902 0.65524,0.47065 0.79927,1.0454 v 0.0257 0.0257 c 0.17476,0.57423 0.28964,1.59726 0.28964,2.99121 v 21.04906 c 0,1.38778 -0.1253,2.42829 -0.33369,3.06884 -2.7e-4,7.8e-4 5.3e-4,0 0,0 -0.19019,0.56139 -0.47904,0.86804 -1.00753,1.07497 v 0 c -0.52084,0.21333 -1.45794,0.36037 -2.74785,0.36037 h -0.68505 v 3.19377 H 103.7751 v -3.19994 h -0.68426 c -1.88132,0 -3.268302,-0.14908 -4.090392,-0.38351 -0.79083,-0.23134 -1.19165,-0.59069 -1.41983,-1.18368 -0.25191,-0.65547 -0.40847,-1.72785 -0.40847,-3.16961 v -8.01721 c 0.17225,0.0617 0.30639,0.0463 0.50607,0.16966 l 0.0264,0.0257 0.0251,0.0257 c 0.43591,0.23134 1.06464,0.78244 1.7911,1.65227 l 11.506852,14.10425 h 11.12357 31.53595 l 0.82222,-11.80423 h -3.1153 l -0.11079,0.54571 c -0.41375,2.01163 -0.98986,3.54592 -1.67847,4.59286 -0.67621,1.02741 -1.6054,1.72322 -2.87605,2.13732 v 0 c -1.25747,0.41899 -3.0334,0.64776 -5.29708,0.64776 -1.90137,0 -3.39558,-0.15167 -4.45718,-0.42825 -1.01175,-0.30177 -1.64945,-0.75725 -2.0301,-1.35282 -0.39053,-0.60867 -0.62029,-1.5055 -0.62029,-2.72671 v -8.67575 c 1.514,0.0257 2.89966,0.0514 3.84639,0.15165 1.09682,0.11317 1.90572,0.34804 2.41773,0.64057 h 0.0251 0.0251 c 0.49657,0.25986 0.84675,0.64491 1.09906,1.25076 v 0.0257 0.0257 c 0.29227,0.63696 0.54168,1.56926 0.71829,2.77427 l 0.0818,0.58683 h 2.9635 v -14.72037 h -2.98988 l -0.062,0.61381 c -0.11606,1.17315 -0.32472,2.10647 -0.59352,2.77787 v 0 0 c -0.22369,0.59379 -0.5707,1.0107 -1.11225,1.332 0,7.8e-4 0,0.001 0,0 -0.50792,0.28893 -1.33383,0.52155 -2.45861,0.6367 -0.97733,0.10024 -2.39056,0.13623 -3.93766,0.15166 v -10.8601 c 0,-0.33622 0.0251,-0.59685 0.0567,-0.7557 0.0251,-0.0617 0.0251,-0.0926 0.0382,-0.11567 0.0673,0 0.39225,-0.1311 0.95728,-0.1311 h 5.14936 c 2.1149,0 3.75762,0.2005 4.8948,0.56036 v 0.001 h 0.0251 c 1.15499,0.32979 1.94898,0.88217 2.4908,1.68235 v 0 c 0.55395,0.81663 0.98035,2.03965 1.21473,3.67574 l 0.0818,0.5894 h 3.26369 l -0.36732,-10.30387 h -30.1433 v 3.15882 l 0.65037,0.0334 c 1.17002,0.0591 2.01677,0.23134 2.48538,0.44186 0.42615,0.19278 0.68624,0.48915 0.85612,1.07213 v 0 0 c 0.17489,0.57424 0.29056,1.5965 0.29056,2.99045 v 21.04983 c 0,1.38906 -0.13058,2.41904 -0.33066,3.02078 v 0.0257 0.0257 c -0.16183,0.55418 -0.43129,0.84618 -0.95411,1.05259 -0.54261,0.19792 -1.50701,0.35163 -2.82211,0.41101 -0.93077,-0.001 -1.84505,-0.19022 -2.7621,-0.57706 -0.90966,-0.41513 -1.68756,-1.00299 -2.35283,-1.77952 l -9.88642,-11.33588 c 2.69958,-0.65238 4.89388,-1.68415 6.28865,-3.31098 1.56662,-1.8281 2.35349,-4.12376 2.35349,-6.77722 0,-2.96321 -1.37564,-5.39792 -3.95902,-7.04661 -2.55832,-1.65227 -6.07696,-2.43445 -10.53282,-2.43445 z m 72.177902,0 v 0.684 2.47507 l 0.65063,0.0334 c 1.10698,0.0591 1.90519,0.22877 2.34004,0.4344 0.38975,0.18508 0.6228,0.46834 0.76854,1.05184 v 0.0257 0.0257 c 0.17489,0.57423 0.2903,1.59726 0.2903,2.9912 v 21.04881 c 0,1.38931 -0.12794,2.42007 -0.32776,3.0218 -0.18768,0.56421 -0.4822,0.87086 -1.01016,1.07831 -0.54934,0.19791 -1.49857,0.35266 -2.79257,0.41153 l -0.65445,0.0282 v 3.16242 h 19.6875 c 2.89095,0 5.55426,-0.41874 7.9741,-1.26774 2.41337,-0.84645 4.5139,-2.06124 6.28522,-3.64155 v -0.001 c 1.79954,-1.57902 3.18006,-3.45878 4.13035,-5.61152 0.983,-2.15866 1.47654,-4.53811 1.47654,-7.11344 0,-2.69999 -0.52032,-5.21567 -1.56412,-7.52572 -1.03878,-2.29823 -2.49752,-4.29341 -4.35615,-5.96445 -1.86233,-1.70445 -4.07087,-3.01332 -6.60862,-3.92171 -2.54157,-0.94053 -5.31277,-1.40937 -8.29842,-1.40937 z m -59.692802,3.92069 v 0 h 3.965492 c 1.96691,0 3.39505,0.53619 4.43673,1.57799 1.05211,1.05234 1.57494,2.40285 1.57494,4.20833 0,2.39204 -0.64984,3.95847 -1.88198,4.92829 v 0 0 c -1.22001,0.9814 -3.18455,1.53481 -5.950342,1.53481 h -2.27687 v -12.16562 -0.0823 c -0.0251,0 -0.0251,0 0.12134,0 z m 71.807812,0.22362 v 0 c 0,0 -5.3e-4,5.2e-4 0,0.001 -5.3e-4,7.7e-4 2.7e-4,0 0,-0.001 z m 0.10024,0 h 5.69447 c 2.50372,0 4.60372,0.58889 6.3658,1.75355 v 0 10e-4 c 1.76407,1.13845 3.1161,2.77556 4.07338,4.98049 v 0 0 c 0.98234,2.16687 1.48748,4.83422 1.48748,8.01204 0,4.44892 -1.04617,7.75605 -3.06189,10.02728 -1.98617,2.24118 -4.8034,3.36857 -8.64543,3.36857 -2.14458,0 -3.66438,-0.42644 -4.60596,-1.1567 -0.94106,-0.73078 -1.40967,-1.76769 -1.40967,-3.35186 v -23.55752 c 0,-0.12596 0.0251,-0.10275 0,-0.0823 0.0251,0 0.0382,0 0.10288,0 z"
       inkscape:export-filename="cred-edge-nav-logo-img.png"
       inkscape:export-xdpi="96"
       inkscape:export-ydpi="96" /><path
       id="path15704-0-9-7"
       style="fill:#8ab9b5;fill-opacity:1;stroke:none;stroke-width:0.0346967"
       d="m 33.697688,205.60066 -34.5531,34.52326 -20.3346,-20.33457 -27.055,26.97505 v 24.61789 l 26.9877,-26.96481 20.3346,20.33408 34.6321,-34.52911 v -24.15158 c 0,-0.15773 -0.01,-0.31358 -0.011,-0.47021 z" /><path
       id="path15706-3-3-5"
       style="fill:#e87461;fill-opacity:1;stroke:none;stroke-width:0.00818143"
       d="m -32.014612,194.30652 c -0.4035,0.0856 -0.6631,0.46933 -0.5993,0.8718 -3.1997,2.38802 -9.756,6.54291 -15.5888,6.51095 6.9375,6.44277 14.7442,2.01148 18.5871,7.64002 l 2.1103,9.95511 c 0.088,0.41674 0.4951,0.68112 0.9119,0.59276 0.4168,-0.0883 0.6812,-0.49497 0.5926,-0.91172 l -5.1023,-24.06615 c -0.088,-0.41674 -0.4948,-0.68114 -0.9115,-0.59277 z" /><path
       id="path15708-4-3-3"
       style="fill:#8ab9b5;fill-opacity:1;stroke:none;stroke-width:0.0346967"
       d="m 33.697688,238.49147 -34.5531,34.52326 -20.3346,-20.33458 -27.055,26.97506 v 24.61789 l 26.9877,-26.96481 20.3346,20.33408 34.6321,-34.52911 v -24.15158 c 0,-0.15773 -0.01,-0.31358 -0.011,-0.47021 z" /><path
       id="path16766-0-8-5"
       style="color:#000000;-inkscape-font-specification:'Libre Baskerville, Bold';fill:#8ab9b5;fill-opacity:1;stroke-width:1.37026;-inkscape-stroke:none"
       d="m 143.62741,256.06128 c -3.70553,10e-4 -7.01762,0.81972 -9.888,2.45863 -0.001,7.6e-4 0,0.001 0,0.001 -2.86708,1.60831 -5.12443,3.88059 -6.73009,6.77722 -1.6112,2.90716 -2.40704,6.28368 -2.40704,10.08536 0,3.64797 0.75034,6.85407 2.27277,9.58208 v 0 c 1.51835,2.68944 3.67454,4.79669 6.42279,6.28138 v 0 c 2.78663,1.45615 6.06245,2.17458 9.79541,2.17458 3.61254,0 6.65636,-0.70301 9.09651,-2.14786 1.1166,-0.66393 1.97337,-1.14332 2.55252,-1.43301 0.58758,-0.27837 1.12148,-0.45163 1.58442,-0.529 0.52309,-0.0797 1.21909,-0.1311 2.07375,-0.1311 h 0.68453 v -6.74329 c 0,-1.62374 0.31667,-2.63752 0.69125,-3.05085 v 0 0 c 0.3871,-0.44803 1.19283,-0.76521 2.57916,-0.76521 h 0.68452 v -3.19326 H 146.906 v 3.14569 l 0.63797,0.0463 c 1.61858,0.11304 2.68177,0.50484 3.22979,1.00787 v 0 0 c 0.58243,0.51204 0.90702,1.31298 0.90702,2.58638 0,2.16431 -0.65234,3.75978 -1.9656,4.96377 -1.31141,1.20194 -3.11768,1.82347 -5.54978,1.82347 -3.39241,0 -5.86619,-1.15104 -7.65703,-3.50968 -1.76077,-2.38974 -2.68798,-5.86239 -2.68798,-10.47607 0,-4.70725 0.95702,-8.30894 2.78874,-10.85676 1.83213,-2.54705 4.27148,-3.77031 7.55627,-3.77031 2.6339,0 4.75553,0.73488 6.48002,2.20568 1.72503,1.4703 2.86577,3.52793 3.41945,6.26777 l 0.11079,0.54956 h 3.52444 v -12.89973 h -2.83266 l -0.78858,2.5694 c -1.70551,-0.93949 -3.36169,-1.75586 -4.8865,-2.21879 -1.76406,-0.53544 -3.62243,-0.80533 -5.56389,-0.80661 z m -95.768373,0.45575 v 0.68424 2.47456 l 0.650099,0.0334 c 1.169757,0.0591 2.020333,0.23134 2.489212,0.4416 0.426409,0.19278 0.682676,0.48915 0.85282,1.07187 v 0 0.001 c 0.17489,0.57476 0.29003,1.59805 0.29003,2.99122 v 21.04958 c 0,1.38854 -0.12794,2.41903 -0.33039,3.02129 v 0.0257 0.0257 c -0.161834,0.55599 -0.433137,0.84875 -0.957938,1.05543 -0.546432,0.19792 -1.510436,0.3524 -2.834903,0.41127 l -0.654979,0.0282 v 3.16267 h 32.21731 l 0.82617,-11.80421 h -3.11609 l -0.11607,0.5457 c -0.41441,2.01162 -0.98788,3.54591 -1.67622,4.59234 -0.67582,1.02792 -1.60606,1.72374 -2.87632,2.13783 v 0 c -1.2572,0.41899 -3.03235,0.64776 -5.29615,0.64776 -1.90137,0 -3.39637,-0.15165 -4.45772,-0.42823 -1.01214,-0.30152 -1.64918,-0.75752 -2.02956,-1.35258 -0.38988,-0.60918 -0.62122,-1.50575 -0.62122,-2.72722 v -8.6755 c 1.514,0.0257 2.89756,0.0514 3.84428,0.15167 1.09629,0.11316 1.90928,0.34803 2.42089,0.64055 h 0.0264 0.0251 c 0.49526,0.25961 0.84332,0.64415 1.09643,1.25026 v 0.0257 0.0257 c 0.29174,0.63721 0.54142,1.57028 0.71802,2.7753 l 0.087,0.58605 h 2.9635 V 266.6659 h -2.99146 l -0.0646,0.61381 c -0.11607,1.1729 -0.32182,2.10596 -0.59075,2.77762 v 0 0 c -0.22356,0.59583 -0.57479,1.01378 -1.11963,1.33585 -0.50766,0.28815 -1.3308,0.52232 -2.45374,0.63773 -0.97706,0.10024 -2.39134,0.13366 -3.93871,0.15166 v -10.8601 c 0,-0.33596 0.0264,-0.59712 0.0541,-0.75572 0.0251,-0.0617 0.0251,-0.0899 0.0356,-0.11567 0.0725,-0.0257 0.3995,-0.1311 0.95622,-0.1311 h 5.14909 c 2.1149,0 3.76211,0.20306 4.89823,0.56036 v 0 h 0.0264 c 1.15486,0.32979 1.94885,0.88218 2.49027,1.68235 v 0 c 0.55369,0.81662 0.97719,2.03964 1.21091,3.67573 l 0.0818,0.58914 h 3.26395 l -0.36706,-10.30334 z m 35.042321,0 v 0.68424 2.47456 l 0.64996,0.0334 c 1.10738,0.0591 1.90599,0.22877 2.34044,0.4344 0.38948,0.18507 0.61924,0.46808 0.76551,1.05157 v 0.0257 0.0257 c 0.17475,0.57425 0.29016,1.59754 0.29016,2.99149 v 21.0488 c 0,1.38905 -0.12794,2.41981 -0.33026,3.02181 -0.19019,0.56266 -0.48114,0.86699 -1.00555,1.07495 -0.54854,0.20049 -1.49751,0.35575 -2.79533,0.4146 l -0.6534,0.0282 v 3.16242 h 19.687762 c 2.89122,0 5.54952,-0.41898 7.97015,-1.268 2.41205,-0.84594 4.51363,-2.06175 6.28469,-3.64102 1.80139,-1.58031 3.18626,-3.45956 4.13707,-5.61358 0.98326,-2.1584 1.47417,-4.53914 1.47417,-7.11446 0,-2.70024 -0.52098,-5.21619 -1.56464,-7.52573 -1.03892,-2.29823 -2.49436,-4.29341 -4.35273,-5.96445 -1.86259,-1.70445 -4.07416,-3.01306 -6.61218,-3.92171 -2.54144,-0.94026 -5.3096,-1.40937 -8.29486,-1.40937 z m 81.564582,0 v 0.68424 2.47456 l 0.65115,0.0334 c 1.17002,0.0591 2.02007,0.23134 2.48842,0.4416 0.42667,0.19278 0.68241,0.48915 0.85256,1.07187 v 0 0.001 c 0.17475,0.5745 0.28633,1.59779 0.28633,2.99122 v 21.04958 c 0,1.38906 -0.12266,2.41955 -0.32617,3.02129 v 0.0257 0.0257 c -0.16196,0.55445 -0.43208,0.84541 -0.9549,1.05183 -0.54564,0.19792 -1.51162,0.35574 -2.8386,0.41487 l -0.65458,0.0282 v 3.16293 h 32.22087 l 0.82209,-11.80423 h -3.11518 l -0.11079,0.54571 c -0.41401,2.01162 -0.99038,3.54592 -1.67899,4.59234 -0.67622,1.02792 -1.60593,1.72374 -2.87579,2.13757 v 0 c -1.25694,0.41925 -3.03419,0.64802 -5.29747,0.64802 -1.90097,0 -3.39598,-0.15166 -4.45785,-0.42824 -1.01043,-0.30099 -1.64457,-0.75828 -2.026,-1.35283 -0.39001,-0.60893 -0.62333,-1.5055 -0.62333,-2.72722 v -8.67523 c 1.51347,0.0257 2.8994,0.0514 3.84666,0.15165 1.09629,0.11303 1.90954,0.34779 2.42102,0.64056 h 0.0264 0.0251 c 0.49631,0.25987 0.84675,0.6444 1.09946,1.25025 v 0.0257 0.0257 c 0.29148,0.63747 0.54181,1.57029 0.71789,2.77505 l 0.0818,0.58605 h 2.96429 v -14.72011 h -2.99119 l -0.062,0.61382 c -0.11607,1.17289 -0.32512,2.10621 -0.59352,2.77761 v 0 0 c -0.22356,0.59403 -0.57453,1.01096 -1.11687,1.332 0,7.8e-4 0,0 0,0 -0.50739,0.28866 -1.33278,0.52257 -2.45756,0.63773 -0.97706,0.10024 -2.39108,0.13367 -3.93818,0.15166 v -10.86061 c 0,-0.33596 0.0277,-0.59686 0.0593,-0.75546 0.0251,-0.0617 0.0251,-0.0899 0.0383,-0.11567 0.0791,-0.0257 0.40662,-0.1311 0.95517,-0.1311 h 5.14856 c 2.11464,0 3.75868,0.20049 4.89507,0.56061 h 0.0251 0.0251 c 1.15511,0.33005 1.9495,0.88578 2.49185,1.6857 0.5521,0.81662 0.97666,2.04118 1.21064,3.67598 l 0.0818,0.58889 h 3.26026 l -0.36732,-10.3031 z m -69.453272,4.14379 v 0 0 c -0.001,10e-4 10e-4,0 0,0 z m 0.10024,0 h 5.697902 c 2.50345,0 4.6045,0.58915 6.3662,1.75382 v 0 10e-4 c 1.76367,1.13844 3.11214,2.77555 4.06955,4.98073 v 0 0 c 0.98247,2.16663 1.48722,4.83396 1.48722,8.01206 0,4.44865 -1.04565,7.75578 -3.06163,10.02728 -1.98564,2.24141 -4.80696,3.3683 -8.64873,3.3683 -2.144312,0 -3.660292,-0.42643 -4.602402,-1.1567 -0.94145,-0.73053 -1.40954,-1.76744 -1.40954,-3.35186 v -23.55777 c 0,-0.12346 0.0251,-0.10288 0,-0.0797 0.0251,0 0.0382,0 0.10288,0 z" /><g
       aria-label="LOAN MGMT SYS"
       id="text1901"
       style="font-size:18.2645px;font-family:'Nata Sans';-inkscape-font-specification:'Nata Sans, @wght=700';font-variation-settings:'wght' 700;text-align:center;letter-spacing:7.47784px;text-anchor:middle;fill:#8ab9b5;stroke-width:1.29772"
       transform="translate(-48.244912,194.17877)"><path
         d="m 2.4840323,127.59258 h 5.4062919 v 2.21 H 6.0387706e-5 V 117.74801 H 2.4840323 Z"
         id="path18157" /><path
         d="m 21.870313,129.96696 q -2.155211,0 -3.543313,-0.78537 -1.388102,-0.78537 -2.082153,-2.19174 -0.675787,-1.40637 -0.675787,-3.23282 0,-1.80818 0.675787,-3.21455 0.694051,-1.40637 2.082153,-2.19174 1.388102,-0.80364 3.543313,-0.80364 2.136946,0 3.525048,0.80364 1.388102,0.78537 2.063889,2.19174 0.694051,1.40637 0.694051,3.21455 0,1.82645 -0.694051,3.23282 -0.675787,1.40637 -2.063889,2.19174 -1.388102,0.78537 -3.525048,0.78537 z m 0,-2.21 q 1.406366,0 2.228269,-0.49314 0.821902,-0.49315 1.187192,-1.38811 0.36529,-0.89496 0.36529,-2.11868 0,-1.20545 -0.36529,-2.10042 -0.36529,-0.91322 -1.187192,-1.40636 -0.821903,-0.49314 -2.228269,-0.49314 -1.424631,0 -2.264798,0.49314 -0.821903,0.49314 -1.187193,1.40636 -0.347025,0.89497 -0.347025,2.10042 0,1.22372 0.347025,2.11868 0.36529,0.89496 1.187193,1.38811 0.840167,0.49314 2.264798,0.49314 z"
         id="path18159" /><path
         d="m 49.810571,129.80258 h -2.55703 l -1.442895,-3.28761 h -5.716788 l -1.46116,3.28761 h -2.538766 l 5.351499,-12.05457 h 2.995377 z m -8.840017,-5.2967 h 3.963396 l -1.990831,-4.54786 z"
         id="path18161" /><path
         d="m 70.548454,117.74801 v 12.05457 h -2.92232 l -6.392575,-8.63911 v 8.63911 h -2.483972 v -12.05457 h 2.776204 l 6.520427,8.89481 0.01826,-8.89481 z"
         id="path18163" /><path
         d="m 99.567799,129.80258 -3.908603,-7.96332 v 7.96332 h -2.483972 v -12.05457 h 3.013642 l 4.675714,9.49754 4.69397,-9.49754 h 2.99538 l 0.0183,12.05457 h -2.50224 v -7.96332 l -3.9086,7.96332 z"
         id="path18165" /><path
         d="m 129.58402,123.19083 q 0.0183,0.36529 0,0.69405 -0.0731,1.78992 -0.71231,3.19629 -0.63926,1.3881 -1.93604,2.21001 -1.27852,0.80363 -3.25108,0.80363 -1.97257,0 -3.28761,-0.8219 -1.31505,-0.8219 -1.99083,-2.24653 -0.65752,-1.4429 -0.65752,-3.26935 0,-1.80818 0.69405,-3.23281 0.69405,-1.4429 2.04562,-2.2648 1.35157,-0.84017 3.30588,-0.84017 1.42463,0 2.5205,0.43835 1.11413,0.43835 1.86298,1.20546 0.74884,0.7671 1.15066,1.75339 l -2.5753,0.32876 q -0.32876,-0.67579 -1.0776,-1.07761 -0.73058,-0.42008 -1.88124,-0.42008 -1.22373,0 -2.0091,0.52967 -0.78537,0.51141 -1.16893,1.4429 -0.36529,0.93149 -0.36529,2.13694 0,1.22372 0.34703,2.15521 0.34702,0.93149 1.11413,1.46116 0.76711,0.51141 1.99083,0.51141 0.93149,0 1.64381,-0.32876 0.71231,-0.32876 1.15066,-0.94976 0.43835,-0.62099 0.52967,-1.47942 h -4.2191 v -1.93604 z"
         id="path18167" /><path
         d="m 145.15304,129.80258 -3.9086,-7.96332 v 7.96332 h -2.48397 v -12.05457 h 3.01364 l 4.67571,9.49754 4.69398,-9.49754 h 2.99538 l 0.0183,12.05457 h -2.50224 v -7.96332 l -3.9086,7.96332 z"
         id="path18169" /><path
         d="m 173.67158,119.95802 h -4.05472 v 9.84456 l -2.48398,0.0183 v -9.86283 h -4.03645 v -2.21001 h 10.57515 z"
         id="path18171" /><path
         d="m 203.16578,121.09042 q -0.0183,-0.34703 -0.2557,-0.65753 -0.21918,-0.31049 -0.82191,-0.49314 -0.60272,-0.18264 -1.73512,-0.18264 -1.1324,0 -1.7534,0.18264 -0.60272,0.16438 -0.84016,0.45661 -0.21918,0.29224 -0.23744,0.67579 0.0183,0.38356 0.18264,0.63926 0.18265,0.2557 0.621,0.43835 0.45661,0.16438 1.26025,0.29223 l 2.13694,0.38355 q 1.55249,0.23744 2.41092,0.74885 0.85843,0.5114 1.20545,1.18719 0.34703,0.67579 0.34703,1.42463 0,0.78537 -0.32876,1.47943 -0.3105,0.67578 -0.96802,1.20545 -0.63926,0.51141 -1.6438,0.80364 -1.00455,0.29223 -2.39265,0.29223 -1.71687,0 -2.86753,-0.40182 -1.1324,-0.40182 -1.73513,-1.1324 -0.60273,-0.73058 -0.69405,-1.73512 l 2.48397,-0.29224 q 0.0183,0.38356 0.25571,0.69406 0.23743,0.29223 0.84016,0.49314 0.60273,0.18264 1.71687,0.18264 1.1324,0 1.73512,-0.23744 0.621,-0.23743 0.84017,-0.60272 0.23744,-0.36529 0.2557,-0.73058 -0.0183,-0.3105 -0.20091,-0.5662 -0.18264,-0.27397 -0.65752,-0.47488 -0.47487,-0.21918 -1.36984,-0.36529 l -2.10041,-0.36529 q -1.49769,-0.2557 -2.33786,-0.71232 -0.8219,-0.45661 -1.15066,-1.11413 -0.32876,-0.67579 -0.32876,-1.53422 0,-0.78537 0.31049,-1.42463 0.3105,-0.63926 0.94976,-1.11413 0.65752,-0.47488 1.66207,-0.73058 1.02281,-0.25571 2.39265,-0.25571 1.71686,0 2.84926,0.40182 1.15066,0.40182 1.75339,1.1324 0.60273,0.73058 0.69405,1.73513 z"
         id="path18173" /><path
         d="m 221.1457,129.80258 h -2.48397 v -5.62546 l -4.56612,-6.42911 h 2.75794 l 3.05017,4.5296 3.05017,-4.5296 h 2.7762 l -4.58439,6.42911 z"
         id="path18175" /><path
         d="m 241.53654,121.09042 q -0.0183,-0.34703 -0.25571,-0.65753 -0.21917,-0.31049 -0.8219,-0.49314 -0.60273,-0.18264 -1.73513,-0.18264 -1.13239,0 -1.75339,0.18264 -0.60273,0.16438 -0.84016,0.45661 -0.21918,0.29224 -0.23744,0.67579 0.0183,0.38356 0.18264,0.63926 0.18265,0.2557 0.62099,0.43835 0.45662,0.16438 1.26026,0.29223 l 2.13694,0.38355 q 1.55248,0.23744 2.41092,0.74885 0.85843,0.5114 1.20545,1.18719 0.34703,0.67579 0.34703,1.42463 0,0.78537 -0.32876,1.47943 -0.3105,0.67578 -0.96802,1.20545 -0.63926,0.51141 -1.64381,0.80364 -1.00454,0.29223 -2.39265,0.29223 -1.71686,0 -2.86752,-0.40182 -1.1324,-0.40182 -1.73513,-1.1324 -0.60273,-0.73058 -0.69405,-1.73512 l 2.48397,-0.29224 q 0.0183,0.38356 0.2557,0.69406 0.23744,0.29223 0.84017,0.49314 0.60273,0.18264 1.71686,0.18264 1.1324,0 1.73513,-0.23744 0.62099,-0.23743 0.84017,-0.60272 0.23744,-0.36529 0.2557,-0.73058 -0.0183,-0.3105 -0.20091,-0.5662 -0.18264,-0.27397 -0.65752,-0.47488 -0.47488,-0.21918 -1.36984,-0.36529 l -2.10041,-0.36529 q -1.49769,-0.2557 -2.33786,-0.71232 -0.8219,-0.45661 -1.15066,-1.11413 -0.32877,-0.67579 -0.32877,-1.53422 0,-0.78537 0.3105,-1.42463 0.3105,-0.63926 0.94976,-1.11413 0.65752,-0.47488 1.66206,-0.73058 1.02282,-0.25571 2.39265,-0.25571 1.71687,0 2.84927,0.40182 1.15066,0.40182 1.75339,1.1324 0.60273,0.73058 0.69405,1.73513 z"
         id="path18177" /></g></g></svg>
