<?xml version="1.0" encoding="UTF-8" standalone="no"?>
<!-- Created with Inkscape (http://www.inkscape.org/) -->

<svg
   width="174.54321mm"
   height="100.97889mm"
   viewBox="0 0 174.54321 100.97889"
   version="1.1"
   id="svg1"
   xml:space="preserve"
   sodipodi:docname="cred-edge-footer-logo.svg"
   inkscape:version="1.2.2 (b0a8486541, 2022-12-01)"
   xmlns:inkscape="http://www.inkscape.org/namespaces/inkscape"
   xmlns:sodipodi="http://sodipodi.sourceforge.net/DTD/sodipodi-0.dtd"
   xmlns="http://www.w3.org/2000/svg"
   xmlns:svg="http://www.w3.org/2000/svg"><sodipodi:namedview
     id="namedview13203"
     pagecolor="#ffffff"
     bordercolor="#000000"
     borderopacity="0.25"
     inkscape:showpageshadow="2"
     inkscape:pageopacity="0.0"
     inkscape:pagecheckerboard="0"
     inkscape:deskcolor="#d1d1d1"
     inkscape:document-units="mm"
     showgrid="false"
     inkscape:zoom="0.42599282"
     inkscape:cx="448.36436"
     inkscape:cy="332.16522"
     inkscape:window-width="1854"
     inkscape:window-height="1011"
     inkscape:window-x="66"
     inkscape:window-y="32"
     inkscape:window-maximized="1"
     inkscape:current-layer="svg1" /><defs
     id="defs1" /><g
     id="g40121"
     transform="translate(-2676.1769,-547.16701)"><path
       id="path12154-0-5"
       style="color:#000000;-inkscape-font-specification:'Libre Baskerville, Bold';fill:#27474e;fill-opacity:1;stroke-width:0.774419;-inkscape-stroke:none"
       d="m 2687.1735,613.01384 c -1.6042,0 -3.0883,0.26663 -4.4418,0.80063 -1.3509,0.51584 -2.5235,1.26598 -3.5062,2.24863 -0.9643,0.96456 -1.7157,2.11951 -2.2485,3.45061 -0.5359,1.32172 -0.8001,2.78959 -0.8001,4.39442 0,2.06272 0.4322,3.87728 1.3108,5.41943 v 0.004 10e-4 c 0.8942,1.51993 2.1559,2.70877 3.7597,3.54638 1.6083,0.83988 3.4859,1.25389 5.6134,1.25389 2.5426,0 4.7243,-0.75019 6.5876,-2.0868 l 0.3243,1.82967 h 1.9224 v -7.75378 h -1.8195 l -0.075,0.2879 c -0.466,1.76324 -1.2349,3.06504 -2.2946,3.94823 -1.0591,0.86519 -2.3741,1.29927 -4.0017,1.29927 -2.0235,0 -3.4799,-0.66318 -4.5063,-2.01017 -1.0297,-1.35139 -1.5704,-3.30354 -1.5704,-5.89386 0,-2.64167 0.5396,-4.67549 1.5759,-6.13384 v -0.002 c 1.0507,-1.45335 2.4695,-2.15536 4.396,-2.15536 1.3969,0 2.5432,0.41835 3.5044,1.2675 v 9.8e-4 c 0.9802,0.85162 1.6416,2.0133 1.9876,3.52926 l 0.068,0.30102 h 1.6977 l 0.5752,-7.29044 h -1.9663 l -0.4422,1.44447 c -0.8994,-0.52398 -1.7797,-0.98443 -2.6046,-1.24432 -0.9512,-0.30507 -1.9697,-0.45729 -3.0527,-0.45729 z m 133.3751,0 c -2.0943,9.9e-4 -3.966,0.46333 -5.5882,1.38952 -8e-4,3.9e-4 0,9.9e-4 0,9.9e-4 -1.6204,0.90892 -2.8962,2.19315 -3.8037,3.83025 -0.9107,1.643 -1.3602,3.55126 -1.3602,5.69975 0,2.06167 0.4237,3.87368 1.2842,5.41539 v 0.002 c 0.8582,1.51996 2.0768,2.71078 3.6301,3.54993 v 0.002 c 1.5747,0.82319 3.4262,1.22917 5.5358,1.22917 2.0418,0 3.7621,-0.39749 5.1411,-1.21406 0.6311,-0.3752 1.1153,-0.64604 1.4426,-0.80971 0.332,-0.15727 0.6337,-0.25537 0.8953,-0.29897 0.2958,-0.0464 0.6891,-0.0726 1.1722,-0.0726 h 0.3867 v -3.8111 c 0,-0.91755 0.1792,-1.49061 0.3907,-1.72429 v -0.004 -0.002 c 0.2186,-0.25313 0.6742,-0.4326 1.4576,-0.4326 h 0.3868 v -1.80444 h -9.1181 v 1.77772 l 0.3606,0.0247 c 0.9148,0.0654 1.5155,0.28549 1.8254,0.56972 v 0.002 0.002 c 0.3289,0.28935 0.5124,0.74204 0.5124,1.46162 0,1.22324 -0.3686,2.1249 -1.1108,2.80524 -0.7411,0.6794 -1.762,1.03056 -3.1365,1.03056 -1.9172,0 -3.3155,-0.65044 -4.3274,-1.98343 -0.9953,-1.35051 -1.519,-3.31315 -1.519,-5.92059 0,-2.66032 0.5407,-4.69603 1.5759,-6.13585 1.0354,-1.43954 2.4141,-2.13067 4.2705,-2.13067 1.4886,0 2.6876,0.41524 3.6624,1.24634 0.9748,0.8309 1.6194,1.99381 1.9325,3.54235 l 0.062,0.31059 h 1.9916 v -7.29044 h -1.6008 l -0.4457,1.45204 c -0.9639,-0.53093 -1.8998,-0.99235 -2.7615,-1.25391 -0.9971,-0.30275 -2.0473,-0.45513 -3.1445,-0.45577 z m -123.2048,0.25764 v 0.38669 1.40062 l 0.3695,0.0171 c 0.6788,0.0331 1.1683,0.13138 1.4309,0.24955 0.239,0.10758 0.3705,0.26607 0.4518,0.59091 v 0.009 0.009 c 0.099,0.32445 0.1639,0.90272 0.1639,1.6905 v 11.89612 c 0,0.78421 -0.072,1.37231 -0.1886,1.73437 -2e-4,4e-4 2e-4,0.002 0,0.002 -0.1068,0.31715 -0.2709,0.49061 -0.5697,0.60751 v 0.002 c -0.2941,0.1203 -0.8239,0.20369 -1.5529,0.20369 h -0.3872 v 1.80497 h 10.9972 v -1.80497 h -0.3867 c -1.0631,0 -1.8469,-0.082 -2.3117,-0.2168 -0.447,-0.12977 -0.6733,-0.33381 -0.8023,-0.66905 -0.1424,-0.37032 -0.231,-0.97648 -0.231,-1.79135 v -4.53106 c 0.098,0.0362 0.1731,0.0279 0.286,0.0969 l 0.012,0.006 0.011,0.005 c 0.2462,0.12954 0.6017,0.44199 1.0121,0.93373 l 6.5033,7.97107 h 6.2866 17.8227 l 0.4648,-6.67129 h -1.7605 l -0.062,0.30854 c -0.2341,1.13682 -0.5597,2.00396 -0.9488,2.59552 -0.3822,0.58089 -0.9075,0.97395 -1.6254,1.20802 v 0.002 c -0.7106,0.23681 -1.7145,0.36603 -2.9939,0.36603 -1.0745,0 -1.9189,-0.085 -2.519,-0.24202 -0.5717,-0.17036 -0.9321,-0.42791 -1.1473,-0.76432 -0.2205,-0.34427 -0.3505,-0.851 -0.3505,-1.54128 v -4.90314 c 0.8556,0.009 1.6388,0.0294 2.174,0.0857 0.6198,0.0653 1.0769,0.19662 1.3663,0.36198 l 0.01,0.004 0.01,0.004 c 0.2806,0.14689 0.4785,0.36445 0.6211,0.70687 v 0.005 0.008 c 0.1652,0.36025 0.3061,0.88686 0.4059,1.56798 l 0.048,0.33176 h 1.6749 v -8.31947 h -1.6899 l -0.035,0.34687 c -0.067,0.66293 -0.1835,1.19043 -0.3354,1.57002 v 0.004 0.003 c -0.1258,0.33567 -0.3226,0.57115 -0.6287,0.75274 -8e-4,5.1e-4 0,10e-4 0,0.002 -0.2872,0.16331 -0.7538,0.29478 -1.3895,0.35998 -0.5523,0.0566 -1.3511,0.0776 -2.2255,0.0862 v -6.13789 c 0,-0.18997 0.013,-0.33724 0.031,-0.42703 0.01,-0.0353 0.015,-0.0518 0.021,-0.0666 0.039,-0.004 0.2218,-0.0726 0.541,-0.0726 h 2.9103 c 1.1953,0 2.1238,0.11289 2.7664,0.31663 v 10e-4 l 0.01,0.002 c 0.6527,0.18652 1.1016,0.49875 1.4079,0.95088 v 0.002 c 0.3129,0.46156 0.5541,1.1529 0.6864,2.07722 l 0.046,0.33325 h 1.8448 l -0.2078,-5.82327 h -17.0357 v 1.78531 l 0.3676,0.019 c 0.6612,0.0331 1.1399,0.13045 1.4045,0.24956 0.2411,0.10856 0.388,0.2766 0.4841,0.60604 v 0.002 0.002 c 0.099,0.32446 0.164,0.90223 0.164,1.69002 v 11.89661 c 0,0.78503 -0.073,1.3671 -0.1867,1.70716 v 0.006 0.007 c -0.092,0.31337 -0.244,0.47824 -0.5394,0.59494 -0.3067,0.11076 -0.8518,0.19865 -1.5948,0.23242 -0.526,-9.6e-4 -1.0428,-0.10727 -1.5611,-0.32621 -0.5142,-0.23446 -0.9538,-0.56687 -1.3298,-1.00583 l -5.5874,-6.40659 c 1.5258,-0.36854 2.7658,-0.95166 3.554,-1.87102 0.8855,-1.03315 1.3301,-2.33061 1.3301,-3.83026 0,-1.67481 -0.7773,-3.05079 -2.2372,-3.98252 -1.4462,-0.93372 -3.4347,-1.3759 -5.9528,-1.3759 z m 40.7921,0 v 0.38669 1.39861 l 0.3675,0.019 c 0.6257,0.0329 1.0769,0.12919 1.3226,0.24553 0.2202,0.1042 0.3521,0.26457 0.4344,0.59442 v 0.0101 0.009 c 0.099,0.32446 0.164,0.90272 0.164,1.69051 v 11.8961 c 0,0.78505 -0.072,1.36761 -0.1851,1.70767 -0.1064,0.31904 -0.2726,0.49207 -0.571,0.60955 -0.3104,0.11181 -0.8469,0.19919 -1.5782,0.23243 l -0.3697,0.0171 v 1.78732 h 11.1264 c 1.6339,0 3.139,-0.23678 4.5067,-0.71644 1.3639,-0.47823 2.5512,-1.16482 3.552,-2.05805 v -10e-4 c 1.0171,-0.89264 1.7973,-1.9549 2.3345,-3.17128 0.5554,-1.21994 0.8343,-2.56499 0.8343,-4.02034 0,-1.52606 -0.2939,-2.94798 -0.8838,-4.25326 -0.5873,-1.29881 -1.4115,-2.42648 -2.462,-3.37093 -1.0525,-0.96339 -2.3007,-1.70286 -3.7349,-2.21639 -1.4365,-0.53148 -3.0026,-0.79658 -4.6898,-0.79658 z m 28.288,0 v 0.38669 1.39861 l 0.3675,0.019 c 0.6613,0.0331 1.1418,0.13038 1.4068,0.24955 0.2412,0.10856 0.3858,0.27659 0.482,0.60603 v 0.002 9.9e-4 c 0.099,0.32475 0.1639,0.90287 0.1639,1.6905 v 11.89614 c 0,0.78486 -0.072,1.36738 -0.1866,1.70765 v 0.006 0.007 c -0.092,0.31412 -0.245,0.47974 -0.5415,0.59644 -0.3087,0.11117 -0.8536,0.19915 -1.6023,0.23243 l -0.37,0.0171 v 1.78731 h 18.2079 l 0.4668,-6.67129 h -1.761 l -0.064,0.30854 c -0.2342,1.13682 -0.5581,2.00397 -0.9474,2.59553 -0.382,0.58076 -0.9076,0.97394 -1.6255,1.208 v 0.002 c -0.7107,0.23685 -1.7139,0.36603 -2.9933,0.36603 -1.0745,0 -1.9194,-0.085 -2.5193,-0.24201 -0.572,-0.17036 -0.9319,-0.4281 -1.147,-0.76432 -0.2204,-0.34427 -0.351,-0.851 -0.351,-1.54129 v -4.90314 c 0.8555,0.009 1.6375,0.0294 2.1726,0.0857 0.6196,0.0652 1.079,0.19672 1.3681,0.36199 l 0.01,0.004 0.01,0.004 c 0.2802,0.1468 0.4768,0.3641 0.6197,0.70687 v 0.006 0.007 c 0.1651,0.36027 0.3061,0.88737 0.4058,1.5685 l 0.05,0.33126 h 1.6748 v -8.31948 h -1.6905 l -0.036,0.34688 c -0.066,0.66293 -0.182,1.19043 -0.3338,1.57002 v 0.004 0.003 c -0.1262,0.33658 -0.325,0.57295 -0.6328,0.75477 -0.287,0.16296 -0.7522,0.29535 -1.3869,0.36048 -0.552,0.0566 -1.3516,0.0771 -2.226,0.0857 v -6.13788 c 0,-0.18982 0.012,-0.33729 0.03,-0.42705 0.01,-0.0349 0.014,-0.0512 0.02,-0.0661 0.042,-0.006 0.2259,-0.0731 0.5405,-0.0731 h 2.9101 c 1.1954,0 2.126,0.1129 2.7684,0.31662 v 0.002 l 0.01,0.002 c 0.6527,0.18651 1.1014,0.49875 1.4075,0.95088 v 0.002 c 0.3128,0.46143 0.5522,1.15278 0.6844,2.07722 l 0.048,0.33326 h 1.8446 l -0.2076,-5.82327 z m 19.8046,0 v 0.38669 1.39861 l 0.3676,0.019 c 0.6256,0.0329 1.0769,0.12913 1.3225,0.24553 0.2201,0.1042 0.3501,0.26463 0.4326,0.59442 v 0.0101 0.009 c 0.099,0.32446 0.164,0.90272 0.164,1.69051 v 11.8961 c 0,0.78505 -0.072,1.36761 -0.1867,1.70767 -0.1061,0.31801 -0.2717,0.49008 -0.5682,0.60754 -0.31,0.11221 -0.8464,0.20111 -1.5797,0.23444 l -0.3694,0.0171 v 1.78732 h 11.1267 c 1.6341,0 3.1365,-0.23678 4.5043,-0.71644 1.3634,-0.47803 2.5512,-1.16531 3.552,-2.05805 1.0182,-0.89305 1.8009,-1.95512 2.3383,-3.1723 0.5555,-1.22001 0.8329,-2.56558 0.8329,-4.02084 0,-1.52606 -0.2943,-2.94798 -0.8843,-4.25326 -0.5872,-1.29883 -1.4094,-2.4265 -2.4598,-3.37093 -1.0527,-0.96341 -2.3026,-1.70286 -3.737,-2.21639 -1.4364,-0.53148 -3.0006,-0.79659 -4.6879,-0.79659 z m 46.0971,0 v 0.38669 1.39861 l 0.3682,0.019 c 0.6611,0.0331 1.1415,0.13043 1.4061,0.24955 0.2413,0.10857 0.3859,0.27659 0.482,0.60603 v 0.002 9.9e-4 c 0.099,0.32452 0.1618,0.90272 0.1618,1.6905 v 11.89614 c 0,0.78506 -0.07,1.3677 -0.1844,1.70765 v 0.006 0.007 c -0.092,0.31336 -0.2441,0.47774 -0.5395,0.59444 -0.3085,0.11139 -0.8544,0.2011 -1.6043,0.23443 l -0.3701,0.0171 v 1.78731 h 18.21 l 0.4647,-6.67129 h -1.7605 l -0.062,0.30854 c -0.2341,1.13682 -0.5598,2.00397 -0.949,2.59553 -0.3822,0.58091 -0.9076,0.97396 -1.6253,1.208 v 0.002 c -0.7105,0.23683 -1.7148,0.36603 -2.9939,0.36603 -1.0745,0 -1.9192,-0.085 -2.5194,-0.24201 -0.5711,-0.17015 -0.9295,-0.42839 -1.145,-0.76432 -0.2203,-0.34432 -0.3523,-0.85103 -0.3523,-1.54129 v -4.90314 c 0.8555,0.009 1.6387,0.0294 2.174,0.0857 0.6196,0.0652 1.0791,0.19668 1.3684,0.36199 l 0.01,0.004 0.01,0.004 c 0.2807,0.14686 0.4787,0.36433 0.6214,0.70687 v 0.006 0.007 c 0.165,0.36037 0.3062,0.88744 0.4057,1.5685 l 0.048,0.33126 h 1.6753 v -8.31948 h -1.6905 l -0.035,0.34688 c -0.066,0.66293 -0.1839,1.19043 -0.3357,1.57002 v 0.004 0.003 c -0.1259,0.33556 -0.3245,0.57113 -0.6309,0.75274 -9e-4,5e-4 0,9.9e-4 0,0.002 -0.2869,0.16325 -0.7532,0.29528 -1.389,0.36048 -0.5521,0.0566 -1.3513,0.0771 -2.2258,0.0857 v -6.13788 c 0,-0.18993 0.015,-0.33725 0.033,-0.42704 0.01,-0.0347 0.014,-0.0507 0.021,-0.0656 0.046,-0.008 0.2298,-0.0736 0.5398,-0.0736 h 2.9098 c 1.1953,0 2.1243,0.11289 2.7667,0.31662 l 0.01,0.002 0.01,0.002 c 0.6528,0.18651 1.1018,0.50072 1.4081,0.9529 0.3123,0.46158 0.5522,1.15367 0.6841,2.07722 l 0.048,0.33326 h 1.8426 l -0.2077,-5.82327 z m -127.9257,2.21586 v 0 h 2.2411 c 1.1117,0 1.9185,0.30309 2.5074,0.89189 0.5946,0.5947 0.8902,1.35808 0.8902,2.37821 0,1.35187 -0.3674,2.23738 -1.0639,2.78559 v 0.002 0.002 c -0.6893,0.55448 -1.7997,0.86718 -3.3628,0.86718 h -1.2867 v -6.87549 c 0,-0.0318 0,-0.0408 0,-0.0479 -0.01,0.005 -0.01,-0.003 0.069,-0.003 z m 40.5828,0.12604 v 0 c 0,0.002 -3e-4,3.4e-4 0,9.9e-4 -3e-4,4.9e-4 4e-4,-0.002 0,-9.9e-4 z m 48.0906,0 v 0 c 0,0.003 0,0.002 0,0.003 -6e-4,9.2e-4 8e-4,-0.004 0,-0.003 z m -48.0331,0.003 h 3.2182 c 1.415,0 2.602,0.33273 3.5977,0.99121 v 0.002 9.9e-4 c 0.9969,0.64316 1.7611,1.56859 2.3022,2.81484 v 0.004 0.002 c 0.5552,1.22458 0.8405,2.73205 0.8405,4.52804 0,2.51416 -0.5913,4.38334 -1.7304,5.66698 -1.1224,1.26655 -2.7147,1.90376 -4.8859,1.90376 -1.212,0 -2.0711,-0.24121 -2.6032,-0.6539 -0.532,-0.4127 -0.7966,-0.9988 -0.7966,-1.8942 v -13.31388 c 0,-0.0696 0.01,-0.059 0,-0.0473 0.01,-0.002 0.021,-0.004 0.058,-0.004 z m 48.0906,0 h 3.2202 c 1.4148,0 2.6021,0.33276 3.5977,0.99121 v 0.002 9.9e-4 c 0.9969,0.64313 1.759,1.5685 2.3001,2.81484 v 0.004 0.002 c 0.5552,1.2246 0.8406,2.73207 0.8406,4.52804 0,2.51414 -0.5912,4.38333 -1.7305,5.66698 -1.1222,1.26659 -2.7167,1.90376 -4.8879,1.90376 -1.2118,0 -2.0688,-0.24119 -2.6011,-0.6539 -0.5321,-0.41272 -0.7966,-0.99884 -0.7966,-1.8942 v -13.31388 c 0,-0.0696 0.01,-0.059 0,-0.0473 0.01,-0.002 0.021,-0.004 0.058,-0.004 z" /><path
       id="path12174-5-98"
       style="color:#000000;font-size:6.32875px;font-family:'Nata Sans';-inkscape-font-specification:'Nata Sans, @wght=500';font-variation-settings:'wght' 500;fill:#27474e;fill-opacity:1;stroke:none;stroke-width:0.265306;-inkscape-stroke:none"
       d="m 2774.6172,636.41839 c -0.4429,0 -0.8333,0.10019 -1.1612,0.3052 v 0.002 c -0.321,0.20345 -0.5699,0.48604 -0.7405,0.84048 v 0.002 c -0.1659,0.34983 -0.2466,0.74564 -0.2466,1.18507 0,0.43854 0.076,0.8376 0.2326,1.19077 0.1573,0.35058 0.3947,0.63226 0.7032,0.83634 v 0.002 c 0.3166,0.20655 0.7048,0.30727 1.1518,0.30727 0.451,0 0.8364,-0.10159 1.1458,-0.30934 0.3045,-0.20454 0.5349,-0.48718 0.6835,-0.83841 0.1512,-0.35102 0.233,-0.74417 0.2502,-1.17677 v -0.002 -0.27412 h -0.131 -2.4361 v 0.75965 h 1.637 c -0.033,0.17124 -0.069,0.34093 -0.1487,0.47983 -0.1034,0.17564 -0.2368,0.30874 -0.4073,0.40728 v 0.002 c -0.1635,0.0966 -0.3571,0.14717 -0.5917,0.14717 -0.2927,0 -0.5201,-0.067 -0.697,-0.19225 -0.1775,-0.13272 -0.3126,-0.30792 -0.4057,-0.53631 v -0.002 c -0.091,-0.23152 -0.1348,-0.49808 -0.1348,-0.80111 0,-0.30126 0.052,-0.56462 0.1524,-0.79488 v -0.002 c 0.1053,-0.23344 0.2515,-0.40768 0.4409,-0.5327 0.1867,-0.12697 0.4164,-0.1943 0.7047,-0.1943 0.2521,0 0.4656,0.053 0.6468,0.15493 0.1839,0.10342 0.3157,0.23595 0.4052,0.40366 l 0.05,0.0937 0.842,-0.22903 -0.073,-0.14509 c -0.1084,-0.2169 -0.2519,-0.40903 -0.4285,-0.57207 -0.1783,-0.1647 -0.3917,-0.29188 -0.6348,-0.38188 -0.245,-0.0907 -0.5141,-0.13473 -0.8068,-0.13473 z m -25.8025,0.0508 c -0.4905,0 -0.9117,0.0974 -1.2536,0.29743 -0.3345,0.19438 -0.5907,0.47052 -0.758,0.81873 -0.1664,0.34191 -0.2487,0.73208 -0.2487,1.16745 0,0.43943 0.082,0.83496 0.2487,1.18092 v 0.002 c 0.1674,0.34399 0.4239,0.61628 0.758,0.81042 0.342,0.19611 0.7627,0.29226 1.2536,0.29226 0.4827,0 0.8959,-0.096 1.2337,-0.29226 0.3384,-0.194 0.5961,-0.46602 0.7638,-0.81042 v -0.002 c 0.1662,-0.34596 0.2467,-0.7415 0.2467,-1.18092 0,-0.43536 -0.08,-0.82554 -0.2467,-1.16745 -0.1675,-0.34861 -0.425,-0.62449 -0.7638,-0.81873 -0.3379,-0.2009 -0.7506,-0.29743 -1.2337,-0.29743 z m -4.8497,0.0648 v 4.45319 h 2.7226 v -0.80473 h -1.8784 v -3.64846 z m 9.1796,0 -2.023,4.45319 h 0.9006 l 0.57,-1.26902 h 1.9037 l 0.572,1.26902 h 0.9068 l -0.085,-0.1881 -1.939,-4.26509 z m 3.1354,0 v 4.45319 h 0.842 v -3.0334 l 2.2898,3.0334 h 0.7695 l 0.01,-4.45319 h -0.1312 -0.711 l -0.01,3.03546 -2.2976,-3.03546 z m 10.6718,0 v 4.45319 h 0.842 v -2.60073 l 1.2831,2.60073 h 0.082 0.7053 l 1.2768,-2.59864 v 2.59864 h 0.8419 v -4.45319 h -0.8357 l -1.6825,3.39767 -1.6747,-3.39767 z m 10.1605,0 v 4.45319 h 0.8419 v -2.60073 l 1.283,2.60073 h 0.082 0.7052 l 1.2747,-2.59503 v 2.59503 h 0.8441 v -4.45319 h -0.8379 l -1.6805,3.39767 -1.6762,-3.39767 z m 5.407,0 v 0.80265 h 1.4536 v 3.65054 h 0.842 v -3.65054 h 1.453 v -0.1311 -0.67155 z m -33.7046,0.74616 c 0.3341,0 0.5946,0.0644 0.7927,0.18395 v 0.002 c 0.2062,0.12223 0.3548,0.28851 0.4546,0.51093 0.1009,0.22143 0.1528,0.47817 0.1528,0.7757 0,0.30198 -0.052,0.56535 -0.1528,0.79125 -0.099,0.21745 -0.2483,0.38089 -0.4546,0.50315 v 0.002 c -0.1981,0.11955 -0.4586,0.18395 -0.7927,0.18395 -0.343,0 -0.6129,-0.0663 -0.8152,-0.18602 -0.2019,-0.12225 -0.3486,-0.287 -0.4482,-0.50523 -0.096,-0.22557 -0.1471,-0.48806 -0.1471,-0.78918 0,-0.29741 0.051,-0.55425 0.1471,-0.7757 v -0.002 c 0.099,-0.22179 0.2473,-0.38718 0.4482,-0.50885 0.2023,-0.11982 0.4722,-0.18603 0.8152,-0.18603 z m 4.7257,0.31712 0.6166,1.35918 h -1.2239 z" /><path
       id="path12281-9-4"
       style="color:#000000;font-size:6.32875px;font-family:'Nata Sans';-inkscape-font-specification:'Nata Sans, @wght=500';font-variation-settings:'wght' 500;fill:#27474e;fill-opacity:1;stroke:none;stroke-width:0.277115;-inkscape-stroke:none"
       d="m 2759.5125,643.37501 c -0.3322,0 -0.6208,0.0334 -0.8671,0.10442 -0.2374,0.0653 -0.4391,0.15865 -0.6018,0.28199 -0.16,0.12115 -0.2845,0.26286 -0.3659,0.42541 v 0.002 c -0.075,0.15487 -0.1148,0.32027 -0.1148,0.4909 0,0.23539 0.049,0.44736 0.1515,0.62622 0.1037,0.1817 0.2707,0.32861 0.4867,0.44382 v 0.002 c 0.2149,0.10984 0.4843,0.19414 0.8102,0.25763 l 0.7999,0.1575 c 0.1949,0.0425 0.3469,0.0964 0.4541,0.15371 v 0.002 c 0.1123,0.0541 0.1833,0.1148 0.223,0.17591 v 0.004 0.002 c 0.047,0.0634 0.065,0.12282 0.065,0.19051 0,0.0885 -0.028,0.1788 -0.097,0.28037 v 0.002 c -0.056,0.0848 -0.1552,0.16532 -0.3149,0.23327 -0.1516,0.0644 -0.3693,0.10233 -0.649,0.10233 -0.2824,0 -0.5031,-0.0273 -0.6544,-0.0736 -0.1526,-0.0485 -0.2553,-0.11106 -0.3112,-0.16995 -0.066,-0.0704 -0.1037,-0.13568 -0.1185,-0.19594 l -0.035,-0.13313 -0.853,0.21269 0.037,0.13478 c 0.051,0.19134 0.1513,0.37014 0.2965,0.52987 0.1517,0.16175 0.3627,0.28892 0.6242,0.38699 v 0.002 c 0.2693,0.0963 0.6024,0.13911 1.006,0.13911 0.3377,0 0.6319,-0.0379 0.8801,-0.11908 0.2439,-0.0797 0.4459,-0.18919 0.6051,-0.33339 0.1579,-0.13885 0.2764,-0.29564 0.3518,-0.47034 0.078,-0.17101 0.1191,-0.3481 0.1191,-0.52772 0,-0.20802 -0.054,-0.4062 -0.1575,-0.58508 -0.1027,-0.18534 -0.2689,-0.33836 -0.4871,-0.46222 v -0.002 c -0.222,-0.12995 -0.5056,-0.22471 -0.8508,-0.29281 l -0.8308,-0.16563 c -0.1682,-0.0294 -0.3059,-0.07 -0.4109,-0.11636 -0.097,-0.0448 -0.1605,-0.0984 -0.2008,-0.1575 -0.04,-0.0587 -0.062,-0.13017 -0.062,-0.22732 0,-0.0733 0.023,-0.13782 0.082,-0.21055 0.056,-0.0645 0.1588,-0.12806 0.3192,-0.18024 0.1558,-0.0506 0.3765,-0.0796 0.6545,-0.0796 0.2658,0 0.4699,0.0234 0.6077,0.0654 v 0.002 c 0.1507,0.0448 0.2527,0.10034 0.3086,0.15318 0.066,0.0628 0.1006,0.11839 0.1147,0.16777 l 0.037,0.13099 0.1309,-0.0346 0.7302,-0.18836 -0.043,-0.13908 c -0.056,-0.1779 -0.1604,-0.34345 -0.3052,-0.49308 -0.1515,-0.15664 -0.3591,-0.27535 -0.6154,-0.36426 -0.2606,-0.0965 -0.5795,-0.14072 -0.9618,-0.14072 z m 7.88,0 c -0.332,0 -0.6191,0.0334 -0.8655,0.10442 -0.2383,0.0655 -0.4402,0.1583 -0.6035,0.28199 -0.1599,0.12115 -0.2829,0.26286 -0.3643,0.42541 v 0.002 c -0.075,0.15487 -0.1125,0.32027 -0.1125,0.4909 0,0.23538 0.049,0.44737 0.1515,0.62622 0.1037,0.18168 0.2689,0.32861 0.485,0.44382 v 0.002 c 0.2154,0.11009 0.4851,0.19408 0.8118,0.25763 l 0.7999,0.1575 c 0.1949,0.0425 0.3469,0.0964 0.4542,0.15371 v 0.002 c 0.1122,0.0541 0.1812,0.1148 0.2208,0.17591 v 0.004 0.002 c 0.047,0.0634 0.065,0.12282 0.065,0.19051 0,0.0885 -0.028,0.1788 -0.097,0.28037 v 0.002 c -0.056,0.0848 -0.1573,0.16532 -0.3172,0.23327 -0.1515,0.0644 -0.3685,0.10233 -0.6483,0.10233 -0.2834,0 -0.503,-0.0271 -0.6545,-0.0736 -0.1539,-0.0486 -0.2551,-0.11076 -0.311,-0.16995 -0.066,-0.0704 -0.1037,-0.13568 -0.1187,-0.19594 l -0.034,-0.13313 -0.853,0.21269 0.034,0.13478 c 0.051,0.19134 0.1516,0.37014 0.2967,0.52987 0.1516,0.16175 0.3603,0.28892 0.6218,0.38699 v 0.002 c 0.2694,0.0963 0.6046,0.13911 1.0083,0.13911 0.3376,0 0.6297,-0.0379 0.8779,-0.11908 0.2433,-0.0795 0.4468,-0.18975 0.6057,-0.33339 0.1583,-0.13913 0.278,-0.29521 0.3534,-0.47034 v -0.002 c 0.077,-0.17041 0.119,-0.34661 0.119,-0.52555 0,-0.20869 -0.055,-0.40789 -0.1595,-0.58724 -0.1027,-0.18429 -0.2698,-0.33672 -0.4872,-0.46006 v -0.002 c -0.222,-0.12996 -0.5034,-0.22471 -0.8486,-0.29281 l -0.8309,-0.16561 c -0.1678,-0.0295 -0.3041,-0.07 -0.4091,-0.11638 -0.097,-0.0448 -0.16,-0.0984 -0.2003,-0.1575 -0.04,-0.0588 -0.062,-0.13017 -0.062,-0.22732 0,-0.0733 0.023,-0.13782 0.081,-0.21055 0.056,-0.0645 0.1583,-0.12805 0.3188,-0.18023 0.1558,-0.0506 0.3746,-0.0796 0.6527,-0.0796 0.2659,0 0.4716,0.0234 0.6095,0.0655 v 0.002 c 0.1508,0.0448 0.2531,0.10034 0.3091,0.15317 0.066,0.0628 0.1005,0.11837 0.1146,0.16779 l 0.035,0.13098 0.1326,-0.0346 0.7306,-0.18835 -0.045,-0.13909 c -0.056,-0.17789 -0.1577,-0.34344 -0.3025,-0.49308 -0.1515,-0.15663 -0.3596,-0.27535 -0.6159,-0.36425 -0.2607,-0.0965 -0.5813,-0.14073 -0.9634,-0.14073 z m -5.9364,0.0655 1.6832,2.44262 v 2.20935 h 0.8796 v -0.13746 -2.07189 l 1.6837,-2.44262 h -1.0067 l -1.1209,1.64862 -1.1127,-1.64862 z" /><path
       id="path12006-6-8"
       style="fill:#8ab9b5;fill-opacity:1;stroke:none;stroke-width:0.0185933"
       d="m 2785.4013,553.22848 -18.5164,18.50039 -10.8969,-10.89693 -14.4984,14.45545 v 13.19229 l 14.4623,-14.44996 10.8969,10.89667 18.5587,-18.50354 v -12.9424 c 0,-0.0845 0,-0.16804 -0.01,-0.25197 z" /><path
       id="path12008-92-1"
       style="fill:#e87461;fill-opacity:1;stroke:none;stroke-width:0.00438428"
       d="m 2750.1872,547.17614 c -0.2162,0.0459 -0.3553,0.25151 -0.3211,0.46718 -1.7147,1.2797 -5.2281,3.50624 -8.3538,3.48911 3.7177,3.45257 7.9012,1.07791 9.9605,4.09415 l 1.1309,5.33477 c 0.047,0.22332 0.2653,0.365 0.4886,0.31764 0.2234,-0.0473 0.3651,-0.26524 0.3176,-0.48857 l -2.7342,-12.89662 c -0.047,-0.22333 -0.2652,-0.36501 -0.4885,-0.31766 z" /><path
       id="path12010-24-0"
       style="fill:#27474e;fill-opacity:1;stroke:none;stroke-width:0.0185933"
       d="m 2785.4013,570.85407 -18.5164,18.5004 -10.8969,-10.89693 -14.4984,14.45545 v 13.19229 l 14.4623,-14.44996 10.8969,10.89667 18.5587,-18.50354 v -12.9424 c 0,-0.0845 0,-0.16804 -0.01,-0.25198 z" /></g></svg>
