<?xml version="1.0" encoding="UTF-8" standalone="no"?>
<!-- Created with Inkscape (http://www.inkscape.org/) -->

<svg
   width="245.18015mm"
   height="129.84012mm"
   viewBox="0 0 245.18013 129.84012"
   version="1.1"
   id="svg1"
   xml:space="preserve"
   sodipodi:docname="cred-edge-nav-logo.svg"
   inkscape:version="1.2.2 (b0a8486541, 2022-12-01)"
   xmlns:inkscape="http://www.inkscape.org/namespaces/inkscape"
   xmlns:sodipodi="http://sodipodi.sourceforge.net/DTD/sodipodi-0.dtd"
   xmlns="http://www.w3.org/2000/svg"
   xmlns:svg="http://www.w3.org/2000/svg"><sodipodi:namedview
     id="namedview1365"
     pagecolor="#111f22"
     bordercolor="#000000"
     borderopacity="0.25"
     inkscape:showpageshadow="2"
     inkscape:pageopacity="1"
     inkscape:pagecheckerboard="0"
     inkscape:deskcolor="#545454"
     inkscape:document-units="mm"
     showgrid="false"
     inkscape:zoom="0.36094155"
     inkscape:cx="446.05561"
     inkscape:cy="231.3394"
     inkscape:window-width="1854"
     inkscape:window-height="1011"
     inkscape:window-x="66"
     inkscape:window-y="32"
     inkscape:window-maximized="1"
     inkscape:current-layer="svg1" /><defs
     id="defs1" /><path
     id="path15698-1-9-6"
     style="color:#000000;-inkscape-font-specification:'Libre Baskerville, Bold';fill:#8ab9b5;fill-opacity:1;stroke-width:1.37026;-inkscape-stroke:none"
     d="m 115.06538,20.557578 c -2.8386,0 -5.46432,0.471688 -7.85896,1.416581 -2.39043,0.912751 -4.46537,2.239868 -6.20398,3.979032 -1.706555,1.706508 -3.035902,3.750014 -3.979067,6.105052 -0.947913,2.33884 -1.415473,4.936257 -1.415473,7.775828 0,3.649762 0.76445,6.860493 2.319334,9.589011 v 0 0.0013 c 1.582317,2.689702 3.814736,4.792837 6.652806,6.274955 2.84519,1.48597 6.1677,2.218792 9.93191,2.218792 4.49926,0 8.3595,-1.327368 11.65642,-3.692429 l 0.57373,3.237465 h 3.40139 V 43.743728 h -3.21924 L 126.788,44.25294 c -0.82485,3.119738 -2.18506,5.423363 -4.05966,6.986186 -1.87446,1.530695 -4.20118,2.298996 -7.08105,2.298996 -3.58036,0 -6.15728,-1.17366 -7.97384,-3.557226 -1.82157,-2.390767 -2.77832,-5.844919 -2.77832,-10.428521 0,-4.674081 0.95464,-8.272695 2.78861,-10.853164 v 0 c 1.85902,-2.571723 4.3696,-3.813757 7.77797,-3.813757 2.47194,0 4.50005,0.740287 6.2012,2.242704 v 0.0013 c 1.734,1.507046 2.90428,3.56237 3.51653,6.24462 l 0.1187,0.532596 h 3.00373 l 1.01795,-12.899743 h -3.47907 l -0.78252,2.556042 c -1.59155,-0.927153 -3.1492,-1.741987 -4.60846,-2.201831 -1.68335,-0.539547 -3.48527,-0.809175 -5.40154,-0.809175 z m 17.99531,0.456006 v 0.683996 2.47841 l 0.65366,0.02822 c 1.20141,0.05909 2.06742,0.233911 2.53234,0.441603 0.42285,0.190202 0.65524,0.470646 0.79927,1.045395 v 0.02572 0.02572 c 0.17476,0.574235 0.28964,1.597261 0.28964,2.991209 v 21.049065 c 0,1.387776 -0.1253,2.428291 -0.33369,3.068841 -2.7e-4,7.78e-4 5.3e-4,0 0,0 -0.19019,0.561388 -0.47904,0.868039 -1.00753,1.074965 v 0 c -0.52084,0.213337 -1.45794,0.360371 -2.74785,0.360371 h -0.68505 v 3.193769 h 19.45853 v -3.199942 h -0.68426 c -1.88132,0 -3.2683,-0.149078 -4.09039,-0.383504 -0.79083,-0.23134 -1.19165,-0.590695 -1.41983,-1.183685 -0.25191,-0.655467 -0.40847,-1.727848 -0.40847,-3.169607 v -8.017205 c 0.17225,0.06173 0.30639,0.04629 0.50607,0.169653 l 0.0264,0.02572 0.0251,0.02572 c 0.43591,0.231339 1.06464,0.78244 1.7911,1.652273 l 11.50685,14.104253 h 11.12357 31.53595 l 0.82222,-11.804229 h -3.1153 l -0.11079,0.545707 c -0.41375,2.011628 -0.98986,3.545923 -1.67847,4.592861 -0.67621,1.027405 -1.6054,1.723218 -2.87605,2.137322 v 0 c -1.25747,0.418983 -3.0334,0.647751 -5.29708,0.647751 -1.90137,0 -3.39558,-0.151663 -4.45718,-0.428242 -1.01175,-0.301771 -1.64945,-0.757249 -2.0301,-1.352824 -0.39053,-0.608672 -0.62029,-1.505503 -0.62029,-2.726711 v -8.675746 c 1.514,0.02572 2.89966,0.05144 3.84639,0.15165 1.09682,0.113164 1.90572,0.348039 2.41773,0.640564 h 0.0251 0.0251 c 0.49657,0.259868 0.84675,0.644916 1.09906,1.250765 v 0.02572 0.02572 c 0.29227,0.636963 0.54168,1.56926 0.71829,2.774271 l 0.0818,0.586831 h 2.9635 V 31.175577 h -2.98988 l -0.062,0.613815 c -0.11606,1.173147 -0.32472,2.106472 -0.59352,2.777872 v 0 0 c -0.22369,0.593782 -0.5707,1.010695 -1.11225,1.331998 0,7.79e-4 0,0.0013 0,0 -0.50792,0.288925 -1.33383,0.521544 -2.45861,0.636699 -0.97733,0.100239 -2.39056,0.136232 -3.93766,0.151664 V 25.827524 c 0,-0.336221 0.0251,-0.596854 0.0567,-0.755706 0.0251,-0.06173 0.0251,-0.09259 0.0382,-0.11567 0.0673,0 0.39225,-0.131101 0.95728,-0.131101 h 5.14936 c 2.1149,0 3.75762,0.200503 4.8948,0.560359 v 0.0013 h 0.0251 c 1.15499,0.329798 1.94898,0.882178 2.4908,1.682358 v 0 c 0.55395,0.816627 0.98035,2.039642 1.21473,3.675732 l 0.0818,0.589402 h 3.26369 l -0.36732,-10.303869 h -30.1433 v 3.158818 l 0.65037,0.03337 c 1.17002,0.05909 2.01677,0.231339 2.48538,0.441867 0.42615,0.192774 0.68624,0.48915 0.85612,1.072129 v 0 0 c 0.17489,0.574235 0.29056,1.596496 0.29056,2.990444 v 21.04983 c 0,1.389068 -0.13058,2.419045 -0.33066,3.020779 v 0.02572 0.02572 c -0.16183,0.554187 -0.43129,0.846185 -0.95411,1.052597 -0.54261,0.197918 -1.50701,0.351626 -2.82211,0.411004 -0.93077,-0.0013 -1.84505,-0.190216 -2.7621,-0.577057 -0.90966,-0.415133 -1.68756,-1.002992 -2.35283,-1.779523 l -9.88642,-11.335878 c 2.69958,-0.652381 4.89388,-1.684151 6.28865,-3.310982 1.56662,-1.8281 2.35349,-4.123759 2.35349,-6.777216 0,-2.963208 -1.37564,-5.397922 -3.95902,-7.046607 -2.55832,-1.652273 -6.07696,-2.43445 -10.53282,-2.43445 z m 72.1779,0 v 0.683996 2.475073 l 0.65063,0.03337 c 1.10698,0.05909 1.90519,0.228768 2.34004,0.434401 0.38975,0.185072 0.6228,0.468338 0.76854,1.051832 v 0.02572 0.02572 c 0.17489,0.574235 0.2903,1.597261 0.2903,2.991209 v 21.048801 c 0,1.389319 -0.12794,2.420074 -0.32776,3.021808 -0.18768,0.564211 -0.4822,0.870861 -1.01016,1.078302 -0.54934,0.197919 -1.49857,0.352668 -2.79257,0.411532 l -0.65445,0.02822 v 3.162419 h 19.6875 c 2.89095,0 5.55426,-0.418733 7.9741,-1.26774 2.41337,-0.846448 4.5139,-2.061233 6.28522,-3.641546 v -0.0013 c 1.79954,-1.57902 3.18006,-3.458782 4.13035,-5.611522 0.983,-2.158662 1.47654,-4.538113 1.47654,-7.113437 0,-2.69999 -0.52032,-5.215672 -1.56412,-7.525721 -1.03878,-2.298231 -2.49752,-4.293412 -4.35615,-5.964453 -1.86233,-1.70445 -4.07087,-3.013314 -6.60862,-3.921712 -2.54157,-0.940527 -5.31277,-1.409366 -8.29842,-1.409366 z m -59.6928,3.920683 v 0 h 3.96549 c 1.96691,0 3.39505,0.536197 4.43673,1.577991 1.05211,1.052346 1.57494,2.402849 1.57494,4.208328 0,2.392047 -0.64984,3.958471 -1.88198,4.928291 v 0 0 c -1.22001,0.981401 -3.18455,1.53481 -5.95034,1.53481 h -2.27687 v -12.165615 -0.0823 c -0.0251,0 -0.0251,0 0.12134,0 z m 71.80781,0.223624 v 0 c 0,0 -5.3e-4,5.15e-4 0,0.0013 -5.3e-4,7.65e-4 2.7e-4,0 0,-0.0013 z m 0.10024,0 h 5.69447 c 2.50372,0 4.60372,0.588888 6.3658,1.753554 v 0 0.0013 c 1.76407,1.138445 3.1161,2.775551 4.07338,4.980481 v 0 0 c 0.98234,2.166879 1.48748,4.834225 1.48748,8.012048 0,4.448914 -1.04617,7.756045 -3.06189,10.027278 -1.98617,2.241174 -4.8034,3.368567 -8.64543,3.368567 -2.14458,0 -3.66438,-0.426436 -4.60596,-1.1567 -0.94106,-0.730778 -1.40967,-1.767692 -1.40967,-3.351856 V 25.235036 c 0,-0.125958 0.0251,-0.102745 0,-0.0823 0.0251,0 0.0382,0 0.10288,0 z"
     inkscape:export-filename="cred-edge-nav-logo-img.png"
     inkscape:export-xdpi="96"
     inkscape:export-ydpi="96" /><path
     id="path15704-0-9-7"
     style="fill:#8ab9b5;fill-opacity:1;stroke:none;stroke-width:0.0346967"
     d="M 81.9426,11.421887 47.3895,45.945146 27.0549,25.610576 -1e-4,52.585626 v 24.61789 l 26.9877,-26.96481 20.3346,20.33408 34.6321,-34.52911 v -24.15158 c 0,-0.157729 -0.01,-0.313579 -0.011,-0.470209 z" /><path
     id="path15706-3-3-5"
     style="fill:#e87461;fill-opacity:1;stroke:none;stroke-width:0.00818143"
     d="m 16.2303,0.12774689 c -0.4035,0.0856 -0.6631,0.46933 -0.5993,0.87179997 C 12.4313,3.3875669 5.875,7.5424569 0.0422,7.5104969 c 6.9375,6.4427691 14.7442,2.01148 18.5871,7.6400191 l 2.1103,9.95511 c 0.088,0.41674 0.4951,0.68112 0.9119,0.59276 0.4168,-0.0883 0.6812,-0.49497 0.5926,-0.91172 L 17.1418,0.72051689 c -0.088,-0.41674 -0.4948,-0.68114 -0.9115,-0.59277 z" /><path
     id="path15708-4-3-3"
     style="fill:#8ab9b5;fill-opacity:1;stroke:none;stroke-width:0.0346967"
     d="M 81.9426,44.312696 47.3895,78.835956 27.0549,58.501376 -1e-4,85.476436 V 110.09433 L 26.9876,83.129516 47.3222,103.4636 81.9543,68.934486 v -24.15158 c 0,-0.15773 -0.01,-0.31358 -0.011,-0.47021 z" /><path
     id="path16766-0-8-5"
     style="color:#000000;-inkscape-font-specification:'Libre Baskerville, Bold';fill:#8ab9b5;fill-opacity:1;stroke-width:1.37026;-inkscape-stroke:none"
     d="m 191.87232,61.882514 c -3.70553,0.0013 -7.01762,0.819714 -9.888,2.458626 -0.001,7.65e-4 0,0.0013 0,0.0013 -2.86708,1.608313 -5.12443,3.880588 -6.73009,6.777216 -1.6112,2.907167 -2.40704,6.283687 -2.40704,10.085363 0,3.647968 0.75034,6.85407 2.27277,9.582086 v 0 c 1.51835,2.689438 3.67454,4.796689 6.42279,6.281379 v 0 c 2.78663,1.456148 6.06245,2.174581 9.79541,2.174581 3.61254,0 6.65636,-0.703014 9.09651,-2.14786 1.1166,-0.663934 1.97337,-1.143325 2.55252,-1.433014 0.58758,-0.278373 1.12148,-0.451627 1.58442,-0.528996 0.52309,-0.07966 1.21909,-0.131101 2.07375,-0.131101 h 0.68453 v -6.743293 c 0,-1.623745 0.31667,-2.637525 0.69125,-3.050851 v 0 0 c 0.3871,-0.448026 1.19283,-0.765215 2.57916,-0.765215 h 0.68452 V 81.24948 h -16.13391 v 3.145694 l 0.63797,0.0463 c 1.61858,0.113032 2.68177,0.504832 3.22979,1.007871 v 0 0 c 0.58243,0.512034 0.90702,1.312979 0.90702,2.586377 0,2.164307 -0.65234,3.759774 -1.9656,4.96377 -1.31141,1.201939 -3.11768,1.82347 -5.54978,1.82347 -3.39241,0 -5.86619,-1.151041 -7.65703,-3.509679 -1.76077,-2.389738 -2.68798,-5.862394 -2.68798,-10.476068 0,-4.707252 0.95702,-8.30894 2.78874,-10.856764 1.83213,-2.547047 4.27148,-3.770313 7.55627,-3.770313 2.6339,0 4.75553,0.73488 6.48002,2.205682 1.72503,1.470301 2.86577,3.527933 3.41945,6.267767 l 0.11079,0.549558 h 3.52444 V 62.333416 h -2.83266 l -0.78858,2.569402 c -1.70551,-0.939485 -3.36169,-1.755861 -4.8865,-2.218792 -1.76406,-0.535431 -3.62243,-0.805323 -5.56389,-0.806603 z m -95.768371,0.455742 v 0.684247 2.474558 l 0.650099,0.03337 c 1.169757,0.05909 2.020333,0.23134 2.489212,0.441603 0.426409,0.192775 0.682676,0.489151 0.85282,1.071866 v 0 0.0013 c 0.17489,0.574762 0.29003,1.598052 0.29003,2.991222 v 21.04958 c 0,1.38854 -0.12794,2.419031 -0.33039,3.021293 v 0.02572 0.02572 c -0.161834,0.555994 -0.433137,0.848756 -0.957938,1.055432 -0.546432,0.197919 -1.510436,0.352405 -2.834903,0.411268 l -0.654979,0.02824 v 3.162669 h 32.21731 l 0.82617,-11.804215 h -3.11609 l -0.11607,0.545706 c -0.41441,2.011615 -0.98788,3.54591 -1.67622,4.592334 -0.67582,1.027919 -1.60606,1.723746 -2.87632,2.137836 v 0 c -1.2572,0.418984 -3.03235,0.647752 -5.29615,0.647752 -1.90137,0 -3.39637,-0.151651 -4.45772,-0.42823 -1.01214,-0.30152 -1.64918,-0.757512 -2.02956,-1.352573 -0.38988,-0.609186 -0.62122,-1.505753 -0.62122,-2.727225 v -8.675496 c 1.514,0.02572 2.89756,0.05144 3.84428,0.151664 1.09629,0.113164 1.90928,0.348038 2.42089,0.64055 h 0.0264 0.0251 c 0.49526,0.259618 0.84332,0.644151 1.09643,1.250264 v 0.02572 0.02572 c 0.29174,0.637214 0.54142,1.570276 0.71802,2.775301 l 0.087,0.586052 h 2.9635 V 72.487126 h -2.99146 l -0.0646,0.613815 c -0.11607,1.172896 -0.32182,2.105958 -0.59075,2.777622 v 0 0 c -0.22356,0.595825 -0.57479,1.01378 -1.11963,1.335849 -0.50766,0.288146 -1.3308,0.522322 -2.45374,0.637728 -0.97706,0.100238 -2.39134,0.13366 -3.93871,0.151663 V 67.143702 c 0,-0.335957 0.0264,-0.597118 0.0541,-0.755719 0.0251,-0.06173 0.0251,-0.08995 0.0356,-0.115669 0.0725,-0.02572 0.3995,-0.131102 0.95622,-0.131102 h 5.14909 c 2.1149,0 3.76211,0.203062 4.89823,0.56036 v 0 h 0.0264 c 1.15486,0.329784 1.94885,0.882177 2.49027,1.682344 v 0 c 0.55369,0.816627 0.97719,2.039642 1.21091,3.675732 l 0.0818,0.589139 h 3.26395 l -0.36706,-10.303342 z m 35.042321,0 v 0.684247 2.474558 l 0.64996,0.03337 c 1.10738,0.05909 1.90599,0.228768 2.34044,0.434402 0.38948,0.185072 0.61924,0.468074 0.76551,1.051568 v 0.02572 0.02572 c 0.17475,0.574248 0.29016,1.597537 0.29016,2.991485 v 21.048802 c 0,1.389055 -0.12794,2.41981 -0.33026,3.021808 -0.19019,0.562667 -0.48114,0.866997 -1.00555,1.074952 -0.54854,0.20049 -1.49751,0.355754 -2.79533,0.414605 l -0.6534,0.02823 v 3.162418 h 19.68776 c 2.89122,0 5.54952,-0.418983 7.97015,-1.268003 2.41205,-0.845934 4.51363,-2.061748 6.28469,-3.641018 1.80139,-1.580312 3.18626,-3.45956 4.13707,-5.613579 0.98326,-2.158398 1.47417,-4.539142 1.47417,-7.114466 0,-2.70024 -0.52098,-5.216186 -1.56464,-7.52572 -1.03892,-2.298231 -2.49436,-4.293412 -4.35273,-5.964454 -1.86259,-1.70445 -4.07416,-3.013063 -6.61218,-3.921712 -2.54144,-0.940263 -5.3096,-1.409366 -8.29486,-1.409366 z m 81.56458,0 v 0.684247 2.474558 l 0.65115,0.03337 c 1.17002,0.05909 2.02007,0.23134 2.48842,0.441603 0.42667,0.192775 0.68241,0.489151 0.85256,1.071866 v 0 0.0013 c 0.17475,0.574499 0.28633,1.597788 0.28633,2.991222 v 21.04958 c 0,1.389054 -0.12266,2.419546 -0.32617,3.021293 v 0.02572 0.02572 c -0.16196,0.554451 -0.43208,0.84542 -0.9549,1.051832 -0.54564,0.197918 -1.51162,0.355741 -2.8386,0.414868 l -0.65458,0.02823 v 3.162933 h 32.22087 l 0.82209,-11.804228 h -3.11518 l -0.11079,0.545706 c -0.41401,2.011628 -0.99038,3.545923 -1.67899,4.592347 -0.67622,1.027919 -1.60593,1.723732 -2.87579,2.137572 v 0 c -1.25694,0.419248 -3.03419,0.648016 -5.29747,0.648016 -1.90097,0 -3.39598,-0.151664 -4.45785,-0.428243 -1.01043,-0.300992 -1.64457,-0.758278 -2.026,-1.352824 -0.39001,-0.608935 -0.62333,-1.505503 -0.62333,-2.727225 v -8.675232 c 1.51347,0.02572 2.8994,0.05144 3.84666,0.151651 1.09629,0.113032 1.90954,0.347787 2.42102,0.640563 h 0.0264 0.0251 c 0.49631,0.259868 0.84675,0.644402 1.09946,1.250251 v 0.02572 0.02572 c 0.29148,0.637464 0.54181,1.570289 0.71789,2.77505 l 0.0818,0.586052 h 2.96429 V 72.487376 h -2.99119 l -0.062,0.613829 c -0.11607,1.172883 -0.32512,2.106208 -0.59352,2.777608 v 0 0 c -0.22356,0.594032 -0.57453,1.010958 -1.11687,1.331998 0,7.79e-4 0,0 0,0 -0.50739,0.288661 -1.33278,0.522573 -2.45756,0.637728 -0.97706,0.100239 -2.39108,0.133673 -3.93818,0.151664 V 67.139587 c 0,-0.335957 0.0277,-0.596854 0.0593,-0.755455 0.0251,-0.06173 0.0251,-0.08995 0.0383,-0.11567 0.0791,-0.02572 0.40662,-0.131101 0.95517,-0.131101 h 5.14856 c 2.11464,0 3.75868,0.20049 4.89507,0.56061 h 0.0251 0.0251 c 1.15511,0.330048 1.9495,0.885778 2.49185,1.685695 0.5521,0.816627 0.97666,2.041185 1.21064,3.675982 l 0.0818,0.588888 h 3.26026 l -0.36732,-10.303091 z m -69.45327,4.143793 v 0 0 c -10e-4,0.0013 0.001,0 0,0 z m 0.10024,0 h 5.6979 c 2.50345,0 4.6045,0.589152 6.3662,1.753818 v 0 0.0013 c 1.76367,1.138445 3.11214,2.77555 4.06955,4.980731 v 0 0 c 0.98247,2.166628 1.48722,4.833961 1.48722,8.012062 0,4.44865 -1.04565,7.755781 -3.06163,10.027277 -1.98564,2.241412 -4.80696,3.368303 -8.64873,3.368303 -2.14431,0 -3.66029,-0.426435 -4.6024,-1.156699 -0.94145,-0.730528 -1.40954,-1.767442 -1.40954,-3.351856 V 66.559207 c 0,-0.123452 0.0251,-0.102877 0,-0.07966 0.0251,0 0.0382,0 0.10288,0 z" /><g
     aria-label="LOAN MGMT SYS"
     id="text1901"
     style="font-size:18.2645px;font-family:'Nata Sans';-inkscape-font-specification:'Nata Sans, @wght=700';font-variation-settings:'wght' 700;text-align:center;letter-spacing:7.47784px;text-anchor:middle;fill:#8ab9b5;stroke-width:1.29772"><path
       d="m 2.4840323,127.59258 h 5.4062919 v 2.21 H 6.0387706e-5 V 117.74801 H 2.4840323 Z"
       id="path18157" /><path
       d="m 21.870313,129.96696 q -2.155211,0 -3.543313,-0.78537 -1.388102,-0.78537 -2.082153,-2.19174 -0.675787,-1.40637 -0.675787,-3.23282 0,-1.80818 0.675787,-3.21455 0.694051,-1.40637 2.082153,-2.19174 1.388102,-0.80364 3.543313,-0.80364 2.136946,0 3.525048,0.80364 1.388102,0.78537 2.063889,2.19174 0.694051,1.40637 0.694051,3.21455 0,1.82645 -0.694051,3.23282 -0.675787,1.40637 -2.063889,2.19174 -1.388102,0.78537 -3.525048,0.78537 z m 0,-2.21 q 1.406366,0 2.228269,-0.49314 0.821902,-0.49315 1.187192,-1.38811 0.36529,-0.89496 0.36529,-2.11868 0,-1.20545 -0.36529,-2.10042 -0.36529,-0.91322 -1.187192,-1.40636 -0.821903,-0.49314 -2.228269,-0.49314 -1.424631,0 -2.264798,0.49314 -0.821903,0.49314 -1.187193,1.40636 -0.347025,0.89497 -0.347025,2.10042 0,1.22372 0.347025,2.11868 0.36529,0.89496 1.187193,1.38811 0.840167,0.49314 2.264798,0.49314 z"
       id="path18159" /><path
       d="m 49.810571,129.80258 h -2.55703 l -1.442895,-3.28761 h -5.716788 l -1.46116,3.28761 h -2.538766 l 5.351499,-12.05457 h 2.995377 z m -8.840017,-5.2967 h 3.963396 l -1.990831,-4.54786 z"
       id="path18161" /><path
       d="m 70.548454,117.74801 v 12.05457 h -2.92232 l -6.392575,-8.63911 v 8.63911 h -2.483972 v -12.05457 h 2.776204 l 6.520427,8.89481 0.01826,-8.89481 z"
       id="path18163" /><path
       d="m 99.567799,129.80258 -3.908603,-7.96332 v 7.96332 h -2.483972 v -12.05457 h 3.013642 l 4.675714,9.49754 4.69397,-9.49754 h 2.99538 l 0.0183,12.05457 h -2.50224 v -7.96332 l -3.9086,7.96332 z"
       id="path18165" /><path
       d="m 129.58402,123.19083 q 0.0183,0.36529 0,0.69405 -0.0731,1.78992 -0.71231,3.19629 -0.63926,1.3881 -1.93604,2.21001 -1.27852,0.80363 -3.25108,0.80363 -1.97257,0 -3.28761,-0.8219 -1.31505,-0.8219 -1.99083,-2.24653 -0.65752,-1.4429 -0.65752,-3.26935 0,-1.80818 0.69405,-3.23281 0.69405,-1.4429 2.04562,-2.2648 1.35157,-0.84017 3.30588,-0.84017 1.42463,0 2.5205,0.43835 1.11413,0.43835 1.86298,1.20546 0.74884,0.7671 1.15066,1.75339 l -2.5753,0.32876 q -0.32876,-0.67579 -1.0776,-1.07761 -0.73058,-0.42008 -1.88124,-0.42008 -1.22373,0 -2.0091,0.52967 -0.78537,0.51141 -1.16893,1.4429 -0.36529,0.93149 -0.36529,2.13694 0,1.22372 0.34703,2.15521 0.34702,0.93149 1.11413,1.46116 0.76711,0.51141 1.99083,0.51141 0.93149,0 1.64381,-0.32876 0.71231,-0.32876 1.15066,-0.94976 0.43835,-0.62099 0.52967,-1.47942 h -4.2191 v -1.93604 z"
       id="path18167" /><path
       d="m 145.15304,129.80258 -3.9086,-7.96332 v 7.96332 h -2.48397 v -12.05457 h 3.01364 l 4.67571,9.49754 4.69398,-9.49754 h 2.99538 l 0.0183,12.05457 h -2.50224 v -7.96332 l -3.9086,7.96332 z"
       id="path18169" /><path
       d="m 173.67158,119.95802 h -4.05472 v 9.84456 l -2.48398,0.0183 v -9.86283 h -4.03645 v -2.21001 h 10.57515 z"
       id="path18171" /><path
       d="m 203.16578,121.09042 q -0.0183,-0.34703 -0.2557,-0.65753 -0.21918,-0.31049 -0.82191,-0.49314 -0.60272,-0.18264 -1.73512,-0.18264 -1.1324,0 -1.7534,0.18264 -0.60272,0.16438 -0.84016,0.45661 -0.21918,0.29224 -0.23744,0.67579 0.0183,0.38356 0.18264,0.63926 0.18265,0.2557 0.621,0.43835 0.45661,0.16438 1.26025,0.29223 l 2.13694,0.38355 q 1.55249,0.23744 2.41092,0.74885 0.85843,0.5114 1.20545,1.18719 0.34703,0.67579 0.34703,1.42463 0,0.78537 -0.32876,1.47943 -0.3105,0.67578 -0.96802,1.20545 -0.63926,0.51141 -1.6438,0.80364 -1.00455,0.29223 -2.39265,0.29223 -1.71687,0 -2.86753,-0.40182 -1.1324,-0.40182 -1.73513,-1.1324 -0.60273,-0.73058 -0.69405,-1.73512 l 2.48397,-0.29224 q 0.0183,0.38356 0.25571,0.69406 0.23743,0.29223 0.84016,0.49314 0.60273,0.18264 1.71687,0.18264 1.1324,0 1.73512,-0.23744 0.621,-0.23743 0.84017,-0.60272 0.23744,-0.36529 0.2557,-0.73058 -0.0183,-0.3105 -0.20091,-0.5662 -0.18264,-0.27397 -0.65752,-0.47488 -0.47487,-0.21918 -1.36984,-0.36529 l -2.10041,-0.36529 q -1.49769,-0.2557 -2.33786,-0.71232 -0.8219,-0.45661 -1.15066,-1.11413 -0.32876,-0.67579 -0.32876,-1.53422 0,-0.78537 0.31049,-1.42463 0.3105,-0.63926 0.94976,-1.11413 0.65752,-0.47488 1.66207,-0.73058 1.02281,-0.25571 2.39265,-0.25571 1.71686,0 2.84926,0.40182 1.15066,0.40182 1.75339,1.1324 0.60273,0.73058 0.69405,1.73513 z"
       id="path18173" /><path
       d="m 221.1457,129.80258 h -2.48397 v -5.62546 l -4.56612,-6.42911 h 2.75794 l 3.05017,4.5296 3.05017,-4.5296 h 2.7762 l -4.58439,6.42911 z"
       id="path18175" /><path
       d="m 241.53654,121.09042 q -0.0183,-0.34703 -0.25571,-0.65753 -0.21917,-0.31049 -0.8219,-0.49314 -0.60273,-0.18264 -1.73513,-0.18264 -1.13239,0 -1.75339,0.18264 -0.60273,0.16438 -0.84016,0.45661 -0.21918,0.29224 -0.23744,0.67579 0.0183,0.38356 0.18264,0.63926 0.18265,0.2557 0.62099,0.43835 0.45662,0.16438 1.26026,0.29223 l 2.13694,0.38355 q 1.55248,0.23744 2.41092,0.74885 0.85843,0.5114 1.20545,1.18719 0.34703,0.67579 0.34703,1.42463 0,0.78537 -0.32876,1.47943 -0.3105,0.67578 -0.96802,1.20545 -0.63926,0.51141 -1.64381,0.80364 -1.00454,0.29223 -2.39265,0.29223 -1.71686,0 -2.86752,-0.40182 -1.1324,-0.40182 -1.73513,-1.1324 -0.60273,-0.73058 -0.69405,-1.73512 l 2.48397,-0.29224 q 0.0183,0.38356 0.2557,0.69406 0.23744,0.29223 0.84017,0.49314 0.60273,0.18264 1.71686,0.18264 1.1324,0 1.73513,-0.23744 0.62099,-0.23743 0.84017,-0.60272 0.23744,-0.36529 0.2557,-0.73058 -0.0183,-0.3105 -0.20091,-0.5662 -0.18264,-0.27397 -0.65752,-0.47488 -0.47488,-0.21918 -1.36984,-0.36529 l -2.10041,-0.36529 q -1.49769,-0.2557 -2.33786,-0.71232 -0.8219,-0.45661 -1.15066,-1.11413 -0.32877,-0.67579 -0.32877,-1.53422 0,-0.78537 0.3105,-1.42463 0.3105,-0.63926 0.94976,-1.11413 0.65752,-0.47488 1.66206,-0.73058 1.02282,-0.25571 2.39265,-0.25571 1.71687,0 2.84927,0.40182 1.15066,0.40182 1.75339,1.1324 0.60273,0.73058 0.69405,1.73513 z"
       id="path18177" /></g></svg>
