<?xml version="1.0" encoding="UTF-8" standalone="no"?>
<!-- Created with Inkscape (http://www.inkscape.org/) -->

<svg
   width="146.71484mm"
   height="196.89227mm"
   viewBox="0 0 146.71484 196.89227"
   version="1.1"
   id="svg1"
   xml:space="preserve"
   sodipodi:docname="cred-edge-canvas.svg"
   inkscape:version="1.2.2 (b0a8486541, 2022-12-01)"
   xmlns:inkscape="http://www.inkscape.org/namespaces/inkscape"
   xmlns:sodipodi="http://sodipodi.sourceforge.net/DTD/sodipodi-0.dtd"
   xmlns="http://www.w3.org/2000/svg"
   xmlns:svg="http://www.w3.org/2000/svg"><sodipodi:namedview
     id="namedview17"
     pagecolor="#ffffff"
     bordercolor="#000000"
     borderopacity="0.25"
     inkscape:showpageshadow="true"
     inkscape:pageopacity="0.0"
     inkscape:pagecheckerboard="false"
     inkscape:deskcolor="#424242"
     inkscape:document-units="px"
     showgrid="false"
     showborder="true"
     inkscape:zoom="0.25199035"
     inkscape:cx="11345.672"
     inkscape:cy="2799.7103"
     inkscape:window-width="1854"
     inkscape:window-height="1011"
     inkscape:window-x="66"
     inkscape:window-y="32"
     inkscape:window-maximized="1"
     inkscape:current-layer="svg1" /><defs
     id="defs1" /><g
     id="g23601-9-3"
     transform="matrix(1.7901971,0,0,1.7901971,-5729.5827,-1431.0916)"
     style="fill:#8ab9b5;fill-opacity:1"
     inkscape:export-filename="./cred-edge-icon-logo-1.svg"
     inkscape:export-xdpi="96"
     inkscape:export-ydpi="96"><path
       id="path23577-1-6"
       style="fill:#8ab9b5;fill-opacity:1;stroke:none;stroke-width:0.0346967"
       d="m 3282.4746,810.71566 -34.5531,34.52326 -20.3346,-20.33457 -27.055,26.97506 v 24.61788 l 26.9877,-26.9648 20.3346,20.33408 34.6321,-34.52912 v -24.15158 c 0,-0.15773 -0.01,-0.31358 -0.011,-0.4702 z"
       sodipodi:nodetypes="ccccccccscc" /><path
       id="path23579-2-0"
       style="fill:#8ab9b5;fill-opacity:1;stroke:none;stroke-width:0.00818143"
       d="m 3216.7623,799.42152 c -0.4035,0.0856 -0.6631,0.46933 -0.5993,0.8718 -3.1997,2.38802 -9.756,6.54291 -15.5888,6.51095 6.9375,6.44277 14.7442,2.01148 18.5871,7.64002 l 2.1103,9.95511 c 0.088,0.41674 0.4951,0.68112 0.9119,0.59276 0.4168,-0.0883 0.6812,-0.49496 0.5926,-0.91171 l -5.1023,-24.06615 c -0.088,-0.41674 -0.4948,-0.68114 -0.9115,-0.59278 z"
       sodipodi:nodetypes="sccccsccs" /><path
       id="path23581-7-6"
       style="fill:#8ab9b5;fill-opacity:1;stroke:none;stroke-width:0.0346967"
       d="m 3282.4746,843.60647 -34.5531,34.52326 -20.3346,-20.33457 -27.055,26.97505 v 24.61789 l 26.9877,-26.96481 20.3346,20.33408 34.6321,-34.52911 v -24.15158 c 0,-0.15773 -0.01,-0.31358 -0.011,-0.47021 z"
       sodipodi:nodetypes="ccccccccscc" /></g></svg>
